<svg class="main-svg" xmlns="http://www.w3.org/2000/svg" xmlns:xlink="http://www.w3.org/1999/xlink" width="1000" height="1000" style="" viewBox="0 0 1000 1000"><rect x="0" y="0" width="1000" height="1000" style="fill: rgb(255, 255, 255); fill-opacity: 1;"/><defs id="defs-529ae8"><g class="clips"/><g class="gradients"/><g class="patterns"/></defs><g class="bglayer"/><g class="layer-below"><g class="imagelayer"/><g class="shapelayer"/></g><g class="cartesianlayer"/><g class="polarlayer"/><g class="smithlayer"/><g class="ternarylayer"/><g class="geolayer"/><g class="funnelarealayer"/><g class="pielayer"><g class="trace" stroke-linejoin="round" style="opacity: 1;"><g class="slice"><path class="surface" d="M426.5539685866621,636.5968127675774a158.1,158.1 0 1 0 131.94603141333792,-245.19681276757743l0,-105.4a263.5,263.5 0 1 1 -219.9100523555632,408.66135461262905Z" style="pointer-events: none; fill: rgb(79, 4, 51); fill-opacity: 1; stroke-width: 1; stroke: rgb(0, 0, 0); stroke-opacity: 1;"/><g class="slicetext"><text data-notex="1" class="slicetext" transform="translate(898.0525476442505,692.4676985017511)" text-anchor="middle" x="0" y="0" style="font-family: 'Open Sans', verdana, arial, sans-serif; font-size: 34px; fill: rgb(42, 63, 95); fill-opacity: 1; white-space: pre;">KI (65.7%)</text></g></g><g class="slice"><path class="surface" d="M401.8308426644895,528.2777206742287a158.1,158.1 0 0 0 24.72312592217256,108.31909209334873l-87.96402094222529,58.06454184505162a263.5,263.5 0 0 1 -41.205209870287604,-180.53182015558122Z" style="pointer-events: none; fill: rgb(42, 71, 101); fill-opacity: 1; stroke-width: 1; stroke: rgb(0, 0, 0); stroke-opacity: 1;"/><g class="slicetext"><text data-notex="1" class="slicetext" transform="translate(171.60649514008946,622.6493352014891)" text-anchor="middle" x="0" y="0" style="font-family: 'Open Sans', verdana, arial, sans-serif; font-size: 34px; fill: rgb(42, 63, 95); fill-opacity: 1; white-space: pre;">UmU (11.4%)</text></g></g><g class="slice"><path class="surface" d="M454.4798874289314,430.43940122482917a158.1,158.1 0 0 0 -52.64904476444189,97.83831944939955l-104.44610489034034,-14.148186217180868a263.5,263.5 0 0 1 87.74840794073648,-163.06386574899926Z" style="pointer-events: none; fill: rgb(153, 0, 0); fill-opacity: 1; stroke-width: 1; stroke: rgb(0, 0, 0); stroke-opacity: 1;"/><g class="slicetext"><text data-notex="1" class="slicetext" transform="translate(212.99432735574953,433.53230149824896)" text-anchor="middle" x="0" y="0" style="font-family: 'Open Sans', verdana, arial, sans-serif; font-size: 34px; fill: rgb(42, 63, 95); fill-opacity: 1; white-space: pre;">UU (11.4%)</text></g></g><g class="slice"><path class="surface" d="M477.41062424212623,413.77924573154496a158.1,158.1 0 0 0 -22.930736813194795,16.66015549328415l-69.34674171404573,-79.37373251678058a263.5,263.5 0 0 1 38.21789468865799,-27.76692582214025Z" style="pointer-events: none; fill: rgb(177, 89, 40); fill-opacity: 1; stroke-width: 1; stroke: rgb(0, 0, 0); stroke-opacity: 1;"/><g class="slicetext"><text data-notex="1" class="slicetext" transform="translate(198.78264852093326,336.3807460945896)" text-anchor="middle" x="0" y="0" style="font-family: 'Open Sans', verdana, arial, sans-serif; font-size: 34px; fill: rgb(42, 63, 95); fill-opacity: 1; white-space: pre;">Other Swe Org (2.9%)</text></g></g><g class="slice"><path class="surface" d="M502.9476403127397,401.4812669518576a158.1,158.1 0 0 0 -25.537016070613486,12.297978779687428l-54.05958383858254,-90.48050284563668a263.5,263.5 0 0 1 42.56169345102248,-20.49663129947905Z" style="pointer-events: none; fill: rgb(0, 47, 95); fill-opacity: 1; stroke-width: 1; stroke: rgb(0, 0, 0); stroke-opacity: 1;"/><g class="slicetext"><text data-notex="1" class="slicetext" transform="translate(342.3435097425234,295.3807460945896)" text-anchor="middle" x="0" y="0" style="font-family: 'Open Sans', verdana, arial, sans-serif; font-size: 34px; fill: rgb(42, 63, 95); fill-opacity: 1; white-space: pre;">SU (2.9%)</text></g><path class="textline" stroke-width="2" d="M444.1716347425234,312.0947033077126V281.8807460945896h-10.25" fill="none" style="stroke: rgb(42, 63, 95); stroke-opacity: 1;"/></g><g class="slice"><path class="surface" d="M530.2701549323355,393.94073204255665a158.1,158.1 0 0 0 -27.322514619595825,7.540534909300919l-37.034906458173545,-98.6791553654283a263.5,263.5 0 0 1 45.53752436599304,-12.567558182168199Z" style="pointer-events: none; fill: rgb(21, 71, 52); fill-opacity: 1; stroke-width: 1; stroke: rgb(0, 0, 0); stroke-opacity: 1;"/><g class="slicetext"><text data-notex="1" class="slicetext" transform="translate(377.10241619318106,254.3807460945896)" text-anchor="middle" x="0" y="0" style="font-family: 'Open Sans', verdana, arial, sans-serif; font-size: 34px; fill: rgb(42, 63, 95); fill-opacity: 1; white-space: pre;">SLU (2.9%)</text></g><path class="textline" stroke-width="2" d="M488.39929119318106,295.49578620664266V240.8807460945896h-10.25" fill="none" style="stroke: rgb(42, 63, 95); stroke-opacity: 1;"/></g><g class="slice"><path class="surface" d="M558.5,391.4a158.1,158.1 0 0 0 -28.22984506766445,2.540732042556647l-18.819896711776327,-103.70617863829557a263.5,263.5 0 0 1 47.04974177944075,-4.234553404261078Z" style="pointer-events: none; fill: rgb(0, 75, 137); fill-opacity: 1; stroke-width: 1; stroke: rgb(0, 0, 0); stroke-opacity: 1;"/><g class="slicetext"><text data-notex="1" class="slicetext" transform="translate(431.48941710394524,213.3807460945896)" text-anchor="middle" x="0" y="0" style="font-family: 'Open Sans', verdana, arial, sans-serif; font-size: 34px; fill: rgb(42, 63, 95); fill-opacity: 1; white-space: pre;">GU (2.9%)</text></g><path class="textline" stroke-width="2" d="M534.8800421039452,287.06077353225453V199.8807460945896h-10.25" fill="none" style="stroke: rgb(42, 63, 95); stroke-opacity: 1;"/></g></g></g><g class="iciclelayer"/><g class="treemaplayer"/><g class="sunburstlayer"/><g class="glimages"/><defs id="topdefs-529ae8"><g class="clips"/></defs><g class="layer-above"><g class="imagelayer"/><g class="shapelayer"/></g><g class="infolayer"><g class="g-gtitle"/><g class="annotation" data-index="0" style="opacity: 1;"><g class="annotation-text-g" transform="rotate(0,558.5,549.5)"><g class="cursor-pointer" transform="translate(478,517)"><rect class="bg" x="0.5" y="0.5" width="161" height="64" style="stroke-width: 1px; stroke: rgb(0, 0, 0); stroke-opacity: 0; fill: rgb(0, 0, 0); fill-opacity: 0;"/><text class="annotation-text" text-anchor="middle" x="81.203125" y="52.5" style="font-family: 'Open Sans', verdana, arial, sans-serif; font-size: 50px; fill: rgb(42, 63, 95); fill-opacity: 1; white-space: pre;">35 PIs</text></g></g></g></g></svg>