<svg class="main-svg" xmlns="http://www.w3.org/2000/svg" xmlns:xlink="http://www.w3.org/1999/xlink" width="1000" height="1000" style="" viewBox="0 0 1000 1000"><rect x="0" y="0" width="1000" height="1000" style="fill: rgb(255, 255, 255); fill-opacity: 1;"/><defs id="defs-a620e8"><g class="clips"/><g class="gradients"/><g class="patterns"/></defs><g class="bglayer"/><g class="layer-below"><g class="imagelayer"/><g class="shapelayer"/></g><g class="cartesianlayer"/><g class="polarlayer"/><g class="smithlayer"/><g class="ternarylayer"/><g class="geolayer"/><g class="funnelarealayer"/><g class="pielayer"><g class="trace" stroke-linejoin="round" style="opacity: 1;"><g class="slice"><path class="surface" d="M564.9088988956687,653.2246082305123a173.7,173.7 0 0 0 -59.408898895668685,-336.9246082305122l0,-115.80000000000001a289.5,289.5 0 0 1 99.01483149278114,561.5410137175204Z" style="pointer-events: none; fill: rgb(79, 4, 51); fill-opacity: 1; stroke-width: 1; stroke: rgb(0, 0, 0); stroke-opacity: 1;"/><g class="slicetext"><text data-notex="1" class="slicetext" transform="translate(898.1174694970342,452.6107019284792)" text-anchor="middle" x="0" y="0" style="font-family: 'Open Sans', verdana, arial, sans-serif; font-size: 34px; fill: rgb(42, 63, 95); fill-opacity: 1; white-space: pre;">KI (44.4%)</text></g></g><g class="slice"><path class="surface" d="M446.09110110433136,653.2246082305123a173.7,173.7 0 0 0 118.81779779133731,-3.410605131648481e-14l39.60593259711246,108.81640548700818a289.5,289.5 0 0 1 -198.0296629855622,5.684341886080802e-14Z" style="pointer-events: none; fill: rgb(0, 108, 92); fill-opacity: 1; stroke-width: 1; stroke: rgb(0, 0, 0); stroke-opacity: 1;"/><g class="slicetext"><text data-notex="1" class="slicetext" transform="translate(674.359375,813.5)" text-anchor="middle" x="0" y="0" style="font-family: 'Open Sans', verdana, arial, sans-serif; font-size: 34px; fill: rgb(42, 63, 95); fill-opacity: 1; white-space: pre;">Chalmers (11.1%)</text></g></g><g class="slice"><path class="surface" d="M355.071387362643,576.8500000000001a173.7,173.7 0 0 0 91.01971374168832,76.37460823051222l-39.60593259711243,108.81640548700821a289.5,289.5 0 0 1 -151.69952290281387,-127.29101371752037Z" style="pointer-events: none; fill: rgb(145, 216, 140); fill-opacity: 1; stroke-width: 1; stroke: rgb(0, 0, 0); stroke-opacity: 1;"/><g class="slicetext"><text data-notex="1" class="slicetext" transform="translate(162.3192369957469,737.2997601040302)" text-anchor="middle" x="0" y="0" style="font-family: 'Open Sans', verdana, arial, sans-serif; font-size: 34px; fill: rgb(42, 63, 95); fill-opacity: 1; white-space: pre;">Int Univ (11.1%)</text></g></g><g class="slice"><path class="surface" d="M334.43889330177944,459.8373115392544a173.7,173.7 0 0 0 20.632494060863603,117.01268846074566l-100.28574175823798,57.90000000000006a289.5,289.5 0 0 1 -34.38749010143934,-195.0211474345761Z" style="pointer-events: none; fill: rgb(156, 97, 20); fill-opacity: 1; stroke-width: 1; stroke: rgb(0, 0, 0); stroke-opacity: 1;"/><g class="slicetext"><text data-notex="1" class="slicetext" transform="translate(109.91378050296584,554.389298071521)" text-anchor="middle" x="0" y="0" style="font-family: 'Open Sans', verdana, arial, sans-serif; font-size: 34px; fill: rgb(42, 63, 95); fill-opacity: 1; white-space: pre;">LU (11.1%)</text></g></g><g class="slice"><path class="surface" d="M393.84779219744786,356.93808023023377a173.7,173.7 0 0 0 -59.4088988956684,102.89923130902066l-114.04073779881372,-20.10845897383039a289.5,289.5 0 0 1 99.01483149278067,-171.4987188483678Z" style="pointer-events: none; fill: rgb(42, 71, 101); fill-opacity: 1; stroke-width: 1; stroke: rgb(0, 0, 0); stroke-opacity: 1;"/><g class="slicetext"><text data-notex="1" class="slicetext" transform="translate(124.78564560440478,353.6250000000005)" text-anchor="middle" x="0" y="0" style="font-family: 'Open Sans', verdana, arial, sans-serif; font-size: 34px; fill: rgb(42, 63, 95); fill-opacity: 1; white-space: pre;">UmU (11.1%)</text></g></g><g class="slice"><path class="surface" d="M505.4999999999995,316.3a173.7,173.7 0 0 0 -111.65220780255164,40.63808023023375l-74.43480520170145,-88.7079465131775a289.5,289.5 0 0 1 186.08701300425275,-67.73013371705625Z" style="pointer-events: none; fill: rgb(153, 0, 0); fill-opacity: 1; stroke-width: 1; stroke: rgb(0, 0, 0); stroke-opacity: 1;"/><g class="slicetext"><text data-notex="1" class="slicetext" transform="translate(293.0164185072182,213.35703074051028)" text-anchor="middle" x="0" y="0" style="font-family: 'Open Sans', verdana, arial, sans-serif; font-size: 34px; fill: rgb(42, 63, 95); fill-opacity: 1; white-space: pre;">UU (11.1%)</text></g></g></g></g><g class="iciclelayer"/><g class="treemaplayer"/><g class="sunburstlayer"/><g class="glimages"/><defs id="topdefs-a620e8"><g class="clips"/></defs><g class="layer-above"><g class="imagelayer"/><g class="shapelayer"/></g><g class="infolayer"><g class="g-gtitle"/><g class="annotation" data-index="0" style="opacity: 1;"><g class="annotation-text-g" transform="rotate(0,505.5,490)"><g class="cursor-pointer" transform="translate(440,458)"><rect class="bg" x="0.5" y="0.5" width="130" height="64" style="stroke-width: 1px; stroke: rgb(0, 0, 0); stroke-opacity: 0; fill: rgb(0, 0, 0); fill-opacity: 0;"/><text class="annotation-text" text-anchor="middle" x="65.3125" y="52.5" style="font-family: 'Open Sans', verdana, arial, sans-serif; font-size: 50px; fill: rgb(42, 63, 95); fill-opacity: 1; white-space: pre;">9 PIs</text></g></g></g></g></svg>