<svg class="main-svg" xmlns="http://www.w3.org/2000/svg" xmlns:xlink="http://www.w3.org/1999/xlink" width="1000" height="1000" style="" viewBox="0 0 1000 1000"><rect x="0" y="0" width="1000" height="1000" style="fill: rgb(255, 255, 255); fill-opacity: 1;"/><defs id="defs-4c3b72"><g class="clips"/><g class="gradients"/><g class="patterns"/></defs><g class="bglayer"/><g class="layer-below"><g class="imagelayer"/><g class="shapelayer"/></g><g class="cartesianlayer"/><g class="polarlayer"/><g class="smithlayer"/><g class="ternarylayer"/><g class="geolayer"/><g class="funnelarealayer"/><g class="pielayer"><g class="trace" stroke-linejoin="round" style="opacity: 1;"><g class="slice"><path class="surface" d="M736.8,500a117.3,117.3 0 0 0 -117.3,-117.3l0,-78.2a195.5,195.5 0 0 1 195.5,195.5Z" style="pointer-events: none; fill: rgb(25, 84, 166); fill-opacity: 1; stroke-width: 1; stroke: rgb(0, 0, 0); stroke-opacity: 1;"/><g class="slicetext"><text data-notex="1" class="slicetext" transform="translate(881.34875072197,365.0106242780299)" text-anchor="middle" x="0" y="0" style="font-family: 'Open Sans', verdana, arial, sans-serif; font-size: 34px; fill: rgb(42, 63, 95); fill-opacity: 1; white-space: pre;">KTH (25.0%)</text></g></g><g class="slice"><path class="surface" d="M619.5,617.3a117.3,117.3 0 0 0 117.29999999999998,-117.3l78.2,-4.788368984666151e-15a195.5,195.5 0 0 1 -195.49999999999997,195.5Z" style="pointer-events: none; fill: rgb(79, 4, 51); fill-opacity: 1; stroke-width: 1; stroke: rgb(0, 0, 0); stroke-opacity: 1;"/><g class="slicetext"><text data-notex="1" class="slicetext" transform="translate(865.2550007219701,661.98937572197)" text-anchor="middle" x="0" y="0" style="font-family: 'Open Sans', verdana, arial, sans-serif; font-size: 34px; fill: rgb(42, 63, 95); fill-opacity: 1; white-space: pre;">KI (25.0%)</text></g></g><g class="slice"><path class="surface" d="M536.556374566818,582.9436254331821a117.3,117.3 0 0 0 82.94362543318202,34.356374566817955l9.576737969332302e-15,78.2a195.5,195.5 0 0 1 -138.23937572197005,-57.26062427802992Z" style="pointer-events: none; fill: rgb(145, 216, 140); fill-opacity: 1; stroke-width: 1; stroke: rgb(0, 0, 0); stroke-opacity: 1;"/><g class="slicetext"><text data-notex="1" class="slicetext" transform="translate(387.591638972625,711.6162931131187)" text-anchor="middle" x="0" y="0" style="font-family: 'Open Sans', verdana, arial, sans-serif; font-size: 34px; fill: rgb(42, 63, 95); fill-opacity: 1; white-space: pre;">Int Univ (12.5%)</text></g></g><g class="slice"><path class="surface" d="M502.2,500a117.3,117.3 0 0 0 34.35637456681798,82.94362543318202l-55.295750288788014,55.295750288788035a195.5,195.5 0 0 1 -57.26062427802998,-138.23937572197005Z" style="pointer-events: none; fill: rgb(0, 185, 231); fill-opacity: 1; stroke-width: 1; stroke: rgb(0, 0, 0); stroke-opacity: 1;"/><g class="slicetext"><text data-notex="1" class="slicetext" transform="translate(323.7409263940435,591.316766520213)" text-anchor="middle" x="0" y="0" style="font-family: 'Open Sans', verdana, arial, sans-serif; font-size: 34px; fill: rgb(42, 63, 95); fill-opacity: 1; white-space: pre;">LiU (12.5%)</text></g></g><g class="slice"><path class="surface" d="M536.556374566818,417.0563745668179a117.3,117.3 0 0 0 -34.35637456681804,82.94362543318209l-78.2,1.4365106953998454e-14a195.5,195.5 0 0 1 57.260624278030065,-138.23937572197016Z" style="pointer-events: none; fill: rgb(255, 124, 91); fill-opacity: 1; stroke-width: 1; stroke: rgb(0, 0, 0); stroke-opacity: 1;"/><g class="slicetext"><text data-notex="1" class="slicetext" transform="translate(216.55342639404347,435.68323347978696)" text-anchor="middle" x="0" y="0" style="font-family: 'Open Sans', verdana, arial, sans-serif; font-size: 34px; fill: rgb(42, 63, 95); fill-opacity: 1; white-space: pre;">Other Swe Univ (12.5%)</text></g></g><g class="slice"><path class="surface" d="M619.5000000000002,382.7a117.3,117.3 0 0 0 -82.94362543318215,34.35637456681792l-55.29575028878798,-55.29575028878806a195.5,195.5 0 0 1 138.23937572197025,-57.260624278029866Z" style="pointer-events: none; fill: rgb(153, 0, 0); fill-opacity: 1; stroke-width: 1; stroke: rgb(0, 0, 0); stroke-opacity: 1;"/><g class="slicetext"><text data-notex="1" class="slicetext" transform="translate(431.2166389726251,315.3837068868812)" text-anchor="middle" x="0" y="0" style="font-family: 'Open Sans', verdana, arial, sans-serif; font-size: 34px; fill: rgb(42, 63, 95); fill-opacity: 1; white-space: pre;">UU (12.5%)</text></g></g></g></g><g class="iciclelayer"/><g class="treemaplayer"/><g class="sunburstlayer"/><g class="glimages"/><defs id="topdefs-4c3b72"><g class="clips"/></defs><g class="layer-above"><g class="imagelayer"/><g class="shapelayer"/></g><g class="infolayer"><g class="g-gtitle"/><g class="annotation" data-index="0" style="opacity: 1;"><g class="annotation-text-g" transform="rotate(0,619.5,500)"><g class="cursor-pointer" transform="translate(554,468)"><rect class="bg" x="0.5" y="0.5" width="130" height="64" style="stroke-width: 1px; stroke: rgb(0, 0, 0); stroke-opacity: 0; fill: rgb(0, 0, 0); fill-opacity: 0;"/><text class="annotation-text" text-anchor="middle" x="65.3125" y="52.5" style="font-family: 'Open Sans', verdana, arial, sans-serif; font-size: 50px; fill: rgb(42, 63, 95); fill-opacity: 1; white-space: pre;">8 PIs</text></g></g></g></g></svg>