<svg class="main-svg" xmlns="http://www.w3.org/2000/svg" xmlns:xlink="http://www.w3.org/1999/xlink" width="1000" height="1000" style="" viewBox="0 0 1000 1000"><rect x="0" y="0" width="1000" height="1000" style="fill: rgb(255, 255, 255); fill-opacity: 1;"/><defs id="defs-eea03f"><g class="clips"/><g class="gradients"/><g class="patterns"/></defs><g class="bglayer"/><g class="layer-below"><g class="imagelayer"/><g class="shapelayer"/></g><g class="cartesianlayer"/><g class="polarlayer"/><g class="smithlayer"/><g class="ternarylayer"/><g class="geolayer"/><g class="funnelarealayer"/><g class="pielayer"><g class="trace" stroke-linejoin="round" style="opacity: 1;"><g class="slice"><path class="surface" d="M721.917267803561,502.1003029820845a148.5,148.5 0 0 0 -147.417267803561,-130.6003029820845l0,-99a247.5,247.5 0 0 1 245.69544633926836,217.6671716368075Z" style="pointer-events: none; fill: rgb(79, 4, 51); fill-opacity: 1; stroke-width: 1; stroke: rgb(0, 0, 0); stroke-opacity: 1;"/><g class="slicetext"><text data-notex="1" class="slicetext" transform="translate(846.1384829145968,336.7580888550354)" text-anchor="middle" x="0" y="0" style="font-family: 'Open Sans', verdana, arial, sans-serif; font-size: 34px; fill: rgb(42, 63, 95); fill-opacity: 1; white-space: pre;">KI (23.1%)</text></g></g><g class="slice"><path class="surface" d="M610.0383761467024,664.1848598877687a148.5,148.5 0 0 0 111.87889165685863,-162.0845569056842l98.27817853570735,-11.933131345277a247.5,247.5 0 0 1 -186.4648194280977,270.14092817614033Z" style="pointer-events: none; fill: rgb(153, 0, 0); fill-opacity: 1; stroke-width: 1; stroke: rgb(0, 0, 0); stroke-opacity: 1;"/><g class="slicetext"><text data-notex="1" class="slicetext" transform="translate(891.6572568086799,680.7113247237751)" text-anchor="middle" x="0" y="0" style="font-family: 'Open Sans', verdana, arial, sans-serif; font-size: 34px; fill: rgb(42, 63, 95); fill-opacity: 1; white-space: pre;">UU (23.1%)</text></g></g><g class="slice"><path class="surface" d="M476.026285251242,631.1538461034086a148.5,148.5 0 0 0 134.01209089546043,33.03101378436016l23.692250764468255,96.12323992517915a247.5,247.5 0 0 1 -223.3534848257674,-55.05168964060027Z" style="pointer-events: none; fill: rgb(145, 216, 140); fill-opacity: 1; stroke-width: 1; stroke: rgb(0, 0, 0); stroke-opacity: 1;"/><g class="slicetext"><text data-notex="1" class="slicetext" transform="translate(358.1756230888295,793.1340240758932)" text-anchor="middle" x="0" y="0" style="font-family: 'Open Sans', verdana, arial, sans-serif; font-size: 34px; fill: rgb(42, 63, 95); fill-opacity: 1; white-space: pre;">Int Univ (15.4%)</text></g></g><g class="slice"><path class="surface" d="M427.082732196439,537.8996970179155a148.5,148.5 0 0 0 48.94355305480296,93.254149085493l-65.64914316583871,74.10256406893903a247.5,247.5 0 0 1 -81.57258842467161,-155.423581809155Z" style="pointer-events: none; fill: rgb(255, 153, 221); fill-opacity: 1; stroke-width: 1; stroke: rgb(0, 0, 0); stroke-opacity: 1;"/><g class="slicetext"><text data-notex="1" class="slicetext" transform="translate(175.09963365083064,652.9463214268385)" text-anchor="middle" x="0" y="0" style="font-family: 'Open Sans', verdana, arial, sans-serif; font-size: 34px; fill: rgb(42, 63, 95); fill-opacity: 1; white-space: pre;">Healthcare (11.5%)</text></g></g><g class="slice"><path class="surface" d="M435.65008796121583,467.3411742741836a148.5,148.5 0 0 0 -8.567355764776863,70.55852274373196l-98.27817853570735,11.933131345277035a247.5,247.5 0 0 1 14.278926274628105,-117.59753790621994Z" style="pointer-events: none; fill: rgb(25, 84, 166); fill-opacity: 1; stroke-width: 1; stroke: rgb(0, 0, 0); stroke-opacity: 1;"/><g class="slicetext"><text data-notex="1" class="slicetext" transform="translate(216.00767866073159,503.3693252654248)" text-anchor="middle" x="0" y="0" style="font-family: 'Open Sans', verdana, arial, sans-serif; font-size: 34px; fill: rgb(42, 63, 95); fill-opacity: 1; white-space: pre;">KTH (7.7%)</text></g></g><g class="slice"><path class="surface" d="M476.02628525124175,408.8461538965916a148.5,148.5 0 0 0 -40.376197290025914,58.49502037759197l-92.56660802585611,-35.105883817210945a247.5,247.5 0 0 1 67.29366215004319,-97.49170062931995Z" style="pointer-events: none; fill: rgb(212, 2, 29); fill-opacity: 1; stroke-width: 1; stroke: rgb(0, 0, 0); stroke-opacity: 1;"/><g class="slicetext"><text data-notex="1" class="slicetext" transform="translate(267.21774319131987,386.28867527622515)" text-anchor="middle" x="0" y="0" style="font-family: 'Open Sans', verdana, arial, sans-serif; font-size: 34px; fill: rgb(42, 63, 95); fill-opacity: 1; white-space: pre;">ÖU (7.7%)</text></g></g><g class="slice"><path class="surface" d="M505.4886089515003,388.5097801904984a148.5,148.5 0 0 0 -29.46232370025851,20.336373706093234l-65.64914316583882,-74.10256406893892a247.5,247.5 0 0 1 49.103872833764186,-33.89395617682206Z" style="pointer-events: none; fill: rgb(159, 161, 163); fill-opacity: 1; stroke-width: 1; stroke: rgb(0, 0, 0); stroke-opacity: 1;"/><g class="slicetext"><text data-notex="1" class="slicetext" transform="translate(283.9977251840387,315.9267930991342)" text-anchor="middle" x="0" y="0" style="font-family: 'Open Sans', verdana, arial, sans-serif; font-size: 34px; fill: rgb(42, 63, 95); fill-opacity: 1; white-space: pre;">Industry (3.8%)</text></g></g><g class="slice"><path class="surface" d="M538.9616238532976,375.81514011223123a148.5,148.5 0 0 0 -33.47301490179739,12.694640078267115l-46.00759403233315,-87.66014653966775a247.5,247.5 0 0 1 55.788358169662324,-21.157733463778527Z" style="pointer-events: none; fill: rgb(0, 185, 231); fill-opacity: 1; stroke-width: 1; stroke: rgb(0, 0, 0); stroke-opacity: 1;"/><g class="slicetext"><text data-notex="1" class="slicetext" transform="translate(382.39154045697234,274.9267930991342)" text-anchor="middle" x="0" y="0" style="font-family: 'Open Sans', verdana, arial, sans-serif; font-size: 34px; fill: rgb(42, 63, 95); fill-opacity: 1; white-space: pre;">LiU (3.8%)</text></g><path class="textline" stroke-width="2" d="M486.73529045697234,288.58347993535983V261.4267930991342h-10.25" fill="none" style="stroke: rgb(42, 63, 95); stroke-opacity: 1;"/></g><g class="slice"><path class="surface" d="M574.5000000000001,371.5a148.5,148.5 0 0 0 -35.538376146702426,4.315140112231267l-23.692250764468223,-96.12323992517916a247.5,247.5 0 0 1 59.23062691117071,-7.191900187052113Z" style="pointer-events: none; fill: rgb(0, 75, 137); fill-opacity: 1; stroke-width: 1; stroke: rgb(0, 0, 0); stroke-opacity: 1;"/><g class="slicetext"><text data-notex="1" class="slicetext" transform="translate(441.27654663680767,233.9267930991342)" text-anchor="middle" x="0" y="0" style="font-family: 'Open Sans', verdana, arial, sans-serif; font-size: 34px; fill: rgb(42, 63, 95); fill-opacity: 1; white-space: pre;">GU (3.8%)</text></g><path class="textline" stroke-width="2" d="M544.6671716368077,274.3045536607316V220.4267930991342h-10.250000000000007" fill="none" style="stroke: rgb(42, 63, 95); stroke-opacity: 1;"/></g></g></g><g class="iciclelayer"/><g class="treemaplayer"/><g class="sunburstlayer"/><g class="glimages"/><defs id="topdefs-eea03f"><g class="clips"/></defs><g class="layer-above"><g class="imagelayer"/><g class="shapelayer"/></g><g class="infolayer"><g class="g-gtitle"/><g class="annotation" data-index="0" style="opacity: 1;"><g class="annotation-text-g" transform="rotate(0,574.5,520)"><g class="cursor-pointer" transform="translate(494,488)"><rect class="bg" x="0.5" y="0.5" width="161" height="64" style="stroke-width: 1px; stroke: rgb(0, 0, 0); stroke-opacity: 0; fill: rgb(0, 0, 0); fill-opacity: 0;"/><text class="annotation-text" text-anchor="middle" x="81.203125" y="52.5" style="font-family: 'Open Sans', verdana, arial, sans-serif; font-size: 50px; fill: rgb(42, 63, 95); fill-opacity: 1; white-space: pre;">26 PIs</text></g></g></g></g></svg>