<svg class="main-svg" xmlns="http://www.w3.org/2000/svg" xmlns:xlink="http://www.w3.org/1999/xlink" width="1000" height="1000" style="" viewBox="0 0 1000 1000"><rect x="0" y="0" width="1000" height="1000" style="fill: rgb(255, 255, 255); fill-opacity: 1;"/><defs id="defs-40ed22"><g class="clips"/><g class="gradients"/><g class="patterns"/></defs><g class="bglayer"/><g class="layer-below"><g class="imagelayer"/><g class="shapelayer"/></g><g class="cartesianlayer"/><g class="polarlayer"/><g class="smithlayer"/><g class="ternarylayer"/><g class="geolayer"/><g class="funnelarealayer"/><g class="pielayer"><g class="trace" stroke-linejoin="round" style="opacity: 1;"><g class="slice"><path class="surface" d="M681.5125859733981,571.5741459879132a143.1,143.1 0 0 0 -135.01258597339816,-95.67414598791322l0,-95.4a238.5,238.5 0 0 1 225.0209766223303,159.45690997985537Z" style="pointer-events: none; fill: rgb(79, 4, 51); fill-opacity: 1; stroke-width: 1; stroke: rgb(0, 0, 0); stroke-opacity: 1;"/><g class="slicetext"><text data-notex="1" class="slicetext" transform="translate(791.9113700942478,424.2584852020078)" text-anchor="middle" x="0" y="0" style="font-family: 'Open Sans', verdana, arial, sans-serif; font-size: 34px; fill: rgb(42, 63, 95); fill-opacity: 1; white-space: pre;">KI (19.6%)</text></g></g><g class="slice"><path class="surface" d="M645.0911661197308,722.717847852487a143.1,143.1 0 0 0 36.421419853667395,-151.1437018645738l90.00839064893212,-31.61723600805786a238.5,238.5 0 0 1 -60.702366422778994,251.9061697742897Z" style="pointer-events: none; fill: rgb(153, 0, 0); fill-opacity: 1; stroke-width: 1; stroke: rgb(0, 0, 0); stroke-opacity: 1;"/><g class="slicetext"><text data-notex="1" class="slicetext" transform="translate(891.8318735432808,689.497606749506)" text-anchor="middle" x="0" y="0" style="font-family: 'Open Sans', verdana, arial, sans-serif; font-size: 34px; fill: rgb(42, 63, 95); fill-opacity: 1; white-space: pre;">UU (18.3%)</text></g></g><g class="slice"><path class="surface" d="M548.9168845899935,762.0795885822945a143.1,143.1 0 0 0 96.17428152973723,-39.36174072980743l65.72744407982053,69.14523190165804a238.5,238.5 0 0 1 -160.29046921622873,65.60290121634571Z" style="pointer-events: none; fill: rgb(21, 71, 52); fill-opacity: 1; stroke-width: 1; stroke: rgb(0, 0, 0); stroke-opacity: 1;"/><g class="slicetext"><text data-notex="1" class="slicetext" transform="translate(758.9481392181224,870.7874913947289)" text-anchor="middle" x="0" y="0" style="font-family: 'Open Sans', verdana, arial, sans-serif; font-size: 34px; fill: rgb(42, 63, 95); fill-opacity: 1; white-space: pre;">SLU (11.8%)</text></g></g><g class="slice"><path class="surface" d="M470.80525012221165,740.4409932474989a143.1,143.1 0 0 0 78.11163446778187,21.63859533479562l1.6112563933290316,95.38639238819633a238.5,238.5 0 0 1 -130.18605744630312,-36.0643255579927Z" style="pointer-events: none; fill: rgb(0, 75, 137); fill-opacity: 1; stroke-width: 1; stroke: rgb(0, 0, 0); stroke-opacity: 1;"/><g class="slicetext"><text data-notex="1" class="slicetext" transform="translate(379.43772189466483,881.38273171309)" text-anchor="middle" x="0" y="0" style="font-family: 'Open Sans', verdana, arial, sans-serif; font-size: 34px; fill: rgb(42, 63, 95); fill-opacity: 1; white-space: pre;">GU (9.1%)</text></g></g><g class="slice"><path class="surface" d="M422.57176471844684,690.5500000000001a143.1,143.1 0 0 0 48.23348540376481,49.89099324749879l-50.463166585192226,80.96066216499923a238.5,238.5 0 0 1 -80.38914233960801,-83.15165541249799Z" style="pointer-events: none; fill: rgb(145, 216, 140); fill-opacity: 1; stroke-width: 1; stroke: rgb(0, 0, 0); stroke-opacity: 1;"/><g class="slicetext"><text data-notex="1" class="slicetext" transform="translate(228.74951196858092,808.1764014673479)" text-anchor="middle" x="0" y="0" style="font-family: 'Open Sans', verdana, arial, sans-serif; font-size: 34px; fill: rgb(42, 63, 95); fill-opacity: 1; white-space: pre;">Int Univ (7.8%)</text></g></g><g class="slice"><path class="surface" d="M403.58366782382234,626.2478960608199a143.1,143.1 0 0 0 18.98809689462451,64.30210393918014l-82.61882352103544,47.700000000000045a238.5,238.5 0 0 1 -31.646828157707517,-107.17017323196691Z" style="pointer-events: none; fill: rgb(0, 47, 95); fill-opacity: 1; stroke-width: 1; stroke: rgb(0, 0, 0); stroke-opacity: 1;"/><g class="slicetext"><text data-notex="1" class="slicetext" transform="translate(215.93624437556332,701.6887232035409)" text-anchor="middle" x="0" y="0" style="font-family: 'Open Sans', verdana, arial, sans-serif; font-size: 34px; fill: rgb(42, 63, 95); fill-opacity: 1; white-space: pre;">SU (7.5%)</text></g></g><g class="slice"><path class="surface" d="M411.48741402660175,571.5741459879133a143.1,143.1 0 0 0 -7.9037462027794385,54.67375007290658l-95.27755478411844,4.831930707213274a238.5,238.5 0 0 1 13.172910337965732,-91.12291678817763Z" style="pointer-events: none; fill: rgb(156, 97, 20); fill-opacity: 1; stroke-width: 1; stroke: rgb(0, 0, 0); stroke-opacity: 1;"/><g class="slicetext"><text data-notex="1" class="slicetext" transform="translate(210.7818393864278,597.95703611564)" text-anchor="middle" x="0" y="0" style="font-family: 'Open Sans', verdana, arial, sans-serif; font-size: 34px; fill: rgb(42, 63, 95); fill-opacity: 1; white-space: pre;">LU (6.2%)</text></g></g><g class="slice"><path class="surface" d="M434.8355224147556,529.5089141555738a143.1,143.1 0 0 0 -23.348108388153822,42.065231832339485l-90.00839064893215,-31.61723600805778a238.5,238.5 0 0 1 38.91351398025637,-70.10871972056582Z" style="pointer-events: none; fill: rgb(42, 71, 101); fill-opacity: 1; stroke-width: 1; stroke: rgb(0, 0, 0); stroke-opacity: 1;"/><g class="slicetext"><text data-notex="1" class="slicetext" transform="translate(218.78083204951713,511.9273630421887)" text-anchor="middle" x="0" y="0" style="font-family: 'Open Sans', verdana, arial, sans-serif; font-size: 34px; fill: rgb(42, 63, 95); fill-opacity: 1; white-space: pre;">UmU (5.4%)</text></g></g><g class="slice"><path class="surface" d="M458.9076338974295,505.83999204421536a143.1,143.1 0 0 0 -24.072111482673847,23.668922111358512l-74.4429850568296,-59.66072389628411a238.5,238.5 0 0 1 40.12018580445641,-39.44820351893085Z" style="pointer-events: none; fill: rgb(25, 84, 166); fill-opacity: 1; stroke-width: 1; stroke: rgb(0, 0, 0); stroke-opacity: 1;"/><g class="slicetext"><text data-notex="1" class="slicetext" transform="translate(266.4883852557454,452.0137157058112)" text-anchor="middle" x="0" y="0" style="font-family: 'Open Sans', verdana, arial, sans-serif; font-size: 34px; fill: rgb(42, 63, 95); fill-opacity: 1; white-space: pre;">KTH (3.8%)</text></g></g><g class="slice"><path class="surface" d="M479.1763897257456,492.7259270489769a143.1,143.1 0 0 0 -20.268755828316134,13.114064995238436l-58.394910735047034,-75.44000530385645a238.5,238.5 0 0 1 33.78125971386022,-21.85677499206406Z" style="pointer-events: none; fill: rgb(255, 124, 91); fill-opacity: 1; stroke-width: 1; stroke: rgb(0, 0, 0); stroke-opacity: 1;"/><g class="slicetext"><text data-notex="1" class="slicetext" transform="translate(205.41036966542003,411.0137157058112)" text-anchor="middle" x="0" y="0" style="font-family: 'Open Sans', verdana, arial, sans-serif; font-size: 34px; fill: rgb(42, 63, 95); fill-opacity: 1; white-space: pre;">Other Swe Univ (2.7%)</text></g><path class="textline" stroke-width="2" d="M416.94161966542003,418.75795625024114V397.5137157058112h-10.25" fill="none" style="stroke: rgb(42, 63, 95); stroke-opacity: 1;"/></g><g class="slice"><path class="surface" d="M494.54126863307334,485.6662074538508a143.1,143.1 0 0 0 -15.364878907327736,7.059719595126074l-44.88240684950294,-84.18271530068208a238.5,238.5 0 0 1 25.608131512212893,-11.766199325210124Z" style="pointer-events: none; fill: rgb(0, 185, 231); fill-opacity: 1; stroke-width: 1; stroke: rgb(0, 0, 0); stroke-opacity: 1;"/><g class="slicetext"><text data-notex="1" class="slicetext" transform="translate(342.58035534001226,370.0137157058112)" text-anchor="middle" x="0" y="0" style="font-family: 'Open Sans', verdana, arial, sans-serif; font-size: 34px; fill: rgb(42, 63, 95); fill-opacity: 1; white-space: pre;">LiU (1.9%)</text></g><path class="textline" stroke-width="2" d="M446.92410534001226,402.28153931272254V356.5137157058112h-10.25" fill="none" style="stroke: rgb(42, 63, 95); stroke-opacity: 1;"/></g><g class="slice"><path class="surface" d="M508.2970081367987,481.0937223593495a143.1,143.1 0 0 0 -13.755739503725339,4.572485094501292l-34.639154244617785,-88.88919503076613a238.5,238.5 0 0 1 22.926232506208898,-7.620808490835486Z" style="pointer-events: none; fill: rgb(64, 142, 191); fill-opacity: 1; stroke-width: 1; stroke: rgb(0, 0, 0); stroke-opacity: 1;"/><g class="slicetext"><text data-notex="1" class="slicetext" transform="translate(354.6436717712662,329.0137157058112)" text-anchor="middle" x="0" y="0" style="font-family: 'Open Sans', verdana, arial, sans-serif; font-size: 34px; fill: rgb(42, 63, 95); fill-opacity: 1; white-space: pre;">NRM (1.6%)</text></g><path class="textline" stroke-width="2" d="M471.2686717712662,392.6761231046522V315.5137157058112h-10.25" fill="none" style="stroke: rgb(42, 63, 95); stroke-opacity: 1;"/></g><g class="slice"><path class="surface" d="M520.0657013839399,478.3627437103633a143.1,143.1 0 0 0 -11.768693247141252,2.73097864898624l-25.468661242134225,-91.93751842710031a238.5,238.5 0 0 1 19.61448874523542,-4.551631081643734Z" style="pointer-events: none; fill: rgb(0, 108, 92); fill-opacity: 1; stroke-width: 1; stroke: rgb(0, 0, 0); stroke-opacity: 1;"/><g class="slicetext"><text data-notex="1" class="slicetext" transform="translate(334.54066016577883,288.0137157058112)" text-anchor="middle" x="0" y="0" style="font-family: 'Open Sans', verdana, arial, sans-serif; font-size: 34px; fill: rgb(42, 63, 95); fill-opacity: 1; white-space: pre;">Chalmers (1.3%)</text></g><path class="textline" stroke-width="2" d="M492.58753516577883,386.6732987031003V274.5137157058112h-10.25" fill="none" style="stroke: rgb(42, 63, 95); stroke-opacity: 1;"/></g><g class="slice"><path class="surface" d="M529.6203937757136,476.89901867434895a143.1,143.1 0 0 0 -9.554692391773681,1.4637250360143468l-17.622865744040055,-93.75817085975781a238.5,238.5 0 0 1 15.924487319622802,-2.439541726690578Z" style="pointer-events: none; fill: rgb(159, 161, 163); fill-opacity: 1; stroke-width: 1; stroke: rgb(0, 0, 0); stroke-opacity: 1;"/><g class="slicetext"><text data-notex="1" class="slicetext" transform="translate(360.478225065158,247.0137157058112)" text-anchor="middle" x="0" y="0" style="font-family: 'Open Sans', verdana, arial, sans-serif; font-size: 34px; fill: rgb(42, 63, 95); fill-opacity: 1; white-space: pre;">Industry (1.1%)</text></g><path class="textline" stroke-width="2" d="M510.384475065158,383.2503046477455V233.5137157058112h-10.25" fill="none" style="stroke: rgb(42, 63, 95); stroke-opacity: 1;"/></g><g class="slice"><path class="surface" d="M536.8393552245675,476.2264662392819a143.1,143.1 0 0 0 -7.218961448853954,0.6725524350670298l-11.253070816190935,-94.73398755043405a238.5,238.5 0 0 1 12.031602414756591,-1.1209207251117164Z" style="pointer-events: none; fill: rgb(177, 89, 40); fill-opacity: 1; stroke-width: 1; stroke: rgb(0, 0, 0); stroke-opacity: 1;"/><g class="slicetext"><text data-notex="1" class="slicetext" transform="translate(319.54008653647304,205.9824657058112)" text-anchor="middle" x="0" y="0" style="font-family: 'Open Sans', verdana, arial, sans-serif; font-size: 34px; fill: rgb(42, 63, 95); fill-opacity: 1; white-space: pre;">Other Swe Org (0.8%)</text></g><path class="textline" stroke-width="2" d="M524.376024036473,381.5283602457647V192.4980907058112h-10.2578125" fill="none" style="stroke: rgb(42, 63, 95); stroke-opacity: 1;"/></g><g class="slice"><path class="surface" d="M541.6669202964753,475.98163984795735a143.1,143.1 0 0 0 -4.827565071907759,0.24482639132455686l-6.440429850288298,-95.18235584047873a238.5,238.5 0 0 1 8.045941786512932,-0.40804398554092813Z" style="pointer-events: none; fill: rgb(255, 153, 221); fill-opacity: 1; stroke-width: 1; stroke: rgb(0, 0, 0); stroke-opacity: 1;"/><g class="slicetext"><text data-notex="1" class="slicetext" transform="translate(364.9670482319664,164.9824657058112)" text-anchor="middle" x="0" y="0" style="font-family: 'Open Sans', verdana, arial, sans-serif; font-size: 34px; fill: rgb(42, 63, 95); fill-opacity: 1; white-space: pre;">Healthcare (0.5%)</text></g><path class="textline" stroke-width="2" d="M534.4201732319664,380.806113039704V151.4824657058112h-10.25" fill="none" style="stroke: rgb(42, 63, 95); stroke-opacity: 1;"/></g><g class="slice"><path class="surface" d="M546.4999999999995,475.9a143.1,143.1 0 0 0 -4.8330797035242705,0.08163984795735359l-3.2220531356831255,-95.3455734346951a238.5,238.5 0 0 1 8.055132839207118,-0.136066413262256Z" style="pointer-events: none; fill: rgb(255, 255, 153); fill-opacity: 1; stroke-width: 1; stroke: rgb(0, 0, 0); stroke-opacity: 1;"/><g class="slicetext"><text data-notex="1" class="slicetext" transform="translate(348.6827965166767,123.9512157058112)" text-anchor="middle" x="0" y="0" style="font-family: 'Open Sans', verdana, arial, sans-serif; font-size: 34px; fill: rgb(42, 63, 95); fill-opacity: 1; white-space: pre;">Other Int Org (0.5%)</text></g><path class="textline" stroke-width="2" d="M542.4718590166767,380.5340190295092V110.4668407058112h-10.2578125" fill="none" style="stroke: rgb(42, 63, 95); stroke-opacity: 1;"/></g></g></g><g class="iciclelayer"/><g class="treemaplayer"/><g class="sunburstlayer"/><g class="glimages"/><defs id="topdefs-40ed22"><g class="clips"/></defs><g class="layer-above"><g class="imagelayer"/><g class="shapelayer"/></g><g class="infolayer"><g class="g-gtitle"/><g class="annotation" data-index="0" style="opacity: 1;"><g class="annotation-text-g" transform="rotate(0,546.5,619)"><g class="cursor-pointer" transform="translate(450,587)"><rect class="bg" x="0.5" y="0.5" width="193" height="64" style="stroke-width: 1px; stroke: rgb(0, 0, 0); stroke-opacity: 0; fill: rgb(0, 0, 0); fill-opacity: 0;"/><text class="annotation-text" text-anchor="middle" x="97.09375" y="52.5" style="font-family: 'Open Sans', verdana, arial, sans-serif; font-size: 50px; fill: rgb(42, 63, 95); fill-opacity: 1; white-space: pre;">372 PIs</text></g></g></g></g></svg>