<svg class="main-svg" xmlns="http://www.w3.org/2000/svg" xmlns:xlink="http://www.w3.org/1999/xlink" width="1000" height="1000" style="" viewBox="0 0 1000 1000"><rect x="0" y="0" width="1000" height="1000" style="fill: rgb(255, 255, 255); fill-opacity: 1;"/><defs id="defs-9e3fd9"><g class="clips"/><g class="gradients"/><g class="patterns"/></defs><g class="bglayer"/><g class="layer-below"><g class="imagelayer"/><g class="shapelayer"/></g><g class="cartesianlayer"/><g class="polarlayer"/><g class="smithlayer"/><g class="ternarylayer"/><g class="geolayer"/><g class="funnelarealayer"/><g class="pielayer"><g class="trace" stroke-linejoin="round" style="opacity: 1;"><g class="slice"><path class="surface" d="M749.4000230151051,528.9101553076123a198.6,198.6 0 0 0 -198.40002301510512,-207.51015530761225l0,-132.4a331,331 0 0 1 330.6667050251752,345.85025884602044Z" style="pointer-events: none; fill: rgb(79, 4, 51); fill-opacity: 1; stroke-width: 1; stroke: rgb(0, 0, 0); stroke-opacity: 1;"/><g class="slicetext"><text data-notex="1" class="slicetext" transform="translate(897.7607249268666,294.9681276964406)" text-anchor="middle" x="0" y="0" style="font-family: 'Open Sans', verdana, arial, sans-serif; font-size: 34px; fill: rgb(42, 63, 95); fill-opacity: 1; white-space: pre;">KI (25.7%)</text></g></g><g class="slice"><path class="surface" d="M533.1976332517781,717.8004947874545a198.6,198.6 0 0 0 216.20238976332698,-188.89033947984223l132.26668201007007,5.9401035384081675a331,331 0 0 1 -360.33731627221164,314.8172324664037Z" style="pointer-events: none; fill: rgb(153, 0, 0); fill-opacity: 1; stroke-width: 1; stroke: rgb(0, 0, 0); stroke-opacity: 1;"/><g class="slicetext"><text data-notex="1" class="slicetext" transform="translate(882.2464682860449,794.3925462218261)" text-anchor="middle" x="0" y="0" style="font-family: 'Open Sans', verdana, arial, sans-serif; font-size: 34px; fill: rgb(42, 63, 95); fill-opacity: 1; white-space: pre;">UU (25.7%)</text></g></g><g class="slice"><path class="surface" d="M385.2537518109493,629.4081405163876a198.6,198.6 0 0 0 147.94388144082882,88.3923542710669l-11.86824449881458,131.86699652496966a331,331 0 0 1 -246.5731357347147,-147.32059045177817Z" style="pointer-events: none; fill: rgb(156, 97, 20); fill-opacity: 1; stroke-width: 1; stroke: rgb(0, 0, 0); stroke-opacity: 1;"/><g class="slicetext"><text data-notex="1" class="slicetext" transform="translate(270.74596417864507,832.7537044725659)" text-anchor="middle" x="0" y="0" style="font-family: 'Open Sans', verdana, arial, sans-serif; font-size: 34px; fill: rgb(42, 63, 95); fill-opacity: 1; white-space: pre;">LU (14.3%)</text></g></g><g class="slice"><path class="surface" d="M362.1201758637825,458.6292249171355a198.6,198.6 0 0 0 23.133575947166843,170.7789155992521l-110.49749879270047,72.9387603442584a331,331 0 0 1 -38.55595991194474,-284.6315259987535Z" style="pointer-events: none; fill: rgb(0, 75, 137); fill-opacity: 1; stroke-width: 1; stroke: rgb(0, 0, 0); stroke-opacity: 1;"/><g class="slicetext"><text data-notex="1" class="slicetext" transform="translate(108.79250385481362,578.3005916635116)" text-anchor="middle" x="0" y="0" style="font-family: 'Open Sans', verdana, arial, sans-serif; font-size: 34px; fill: rgb(42, 63, 95); fill-opacity: 1; white-space: pre;">GU (14.3%)</text></g></g><g class="slice"><path class="surface" d="M395.7282675818493,396.1749253508556a198.6,198.6 0 0 0 -33.608091718066795,62.45429956627993l-125.91988275747836,-40.91385005524302a331,331 0 0 1 56.01348619677799,-104.09049927713322Z" style="pointer-events: none; fill: rgb(21, 71, 52); fill-opacity: 1; stroke-width: 1; stroke: rgb(0, 0, 0); stroke-opacity: 1;"/><g class="slicetext"><text data-notex="1" class="slicetext" transform="translate(148.22600395541969,372.0461667813216)" text-anchor="middle" x="0" y="0" style="font-family: 'Open Sans', verdana, arial, sans-serif; font-size: 34px; fill: rgb(42, 63, 95); fill-opacity: 1; white-space: pre;">SLU (5.7%)</text></g></g><g class="slice"><path class="surface" d="M449.13820350718703,349.5120695906694a198.6,198.6 0 0 0 -53.40993592533774,46.66285576018614l-103.51448827876716,-82.55004976609631a331,331 0 0 1 89.0165598755629,-77.7714262669769Z" style="pointer-events: none; fill: rgb(42, 71, 101); fill-opacity: 1; stroke-width: 1; stroke: rgb(0, 0, 0); stroke-opacity: 1;"/><g class="slicetext"><text data-notex="1" class="slicetext" transform="translate(214.03478171395506,272.60745377817386)" text-anchor="middle" x="0" y="0" style="font-family: 'Open Sans', verdana, arial, sans-serif; font-size: 34px; fill: rgb(42, 63, 95); fill-opacity: 1; white-space: pre;">UmU (5.7%)</text></g></g><g class="slice"><path class="surface" d="M481.2169599374453,334.0637546909482a198.6,198.6 0 0 0 -32.078756430258295,15.448314899721208l-67.907864328542,-113.65862027288706a331,331 0 0 1 53.46459405043049,-25.747191499535347Z" style="pointer-events: none; fill: rgb(255, 153, 221); fill-opacity: 1; stroke-width: 1; stroke: rgb(0, 0, 0); stroke-opacity: 1;"/><g class="slicetext"><text data-notex="1" class="slicetext" transform="translate(237.93135735208818,218.6385342552473)" text-anchor="middle" x="0" y="0" style="font-family: 'Open Sans', verdana, arial, sans-serif; font-size: 34px; fill: rgb(42, 63, 95); fill-opacity: 1; white-space: pre;">Healthcare (2.9%)</text></g></g><g class="slice"><path class="surface" d="M515.5386006929907,324.59158370431214a198.6,198.6 0 0 0 -34.32164075554542,9.472170986636046l-46.5220267083698,-123.9574968727012a331,331 0 0 1 57.202734592575695,-15.786951644393412Z" style="pointer-events: none; fill: rgb(145, 216, 140); fill-opacity: 1; stroke-width: 1; stroke: rgb(0, 0, 0); stroke-opacity: 1;"/><g class="slicetext"><text data-notex="1" class="slicetext" transform="translate(316.6605541174305,177.6385342552473)" text-anchor="middle" x="0" y="0" style="font-family: 'Open Sans', verdana, arial, sans-serif; font-size: 34px; fill: rgb(42, 63, 95); fill-opacity: 1; white-space: pre;">Int Univ (2.9%)</text></g><path class="textline" stroke-width="2" d="M462.9418041174305,200.92829310967255V164.1385342552473h-10.25" fill="none" style="stroke: rgb(42, 63, 95); stroke-opacity: 1;"/></g><g class="slice"><path class="surface" d="M551,321.4a198.6,198.6 0 0 0 -35.46139930700923,3.191583704312154l-23.640932871339523,-130.27227753045858a331,331 0 0 1 59.102332178348725,-5.31930617385359Z" style="pointer-events: none; fill: rgb(0, 185, 231); fill-opacity: 1; stroke-width: 1; stroke: rgb(0, 0, 0); stroke-opacity: 1;"/><g class="slicetext"><text data-notex="1" class="slicetext" transform="translate(416.9856387529634,136.6385342552473)" text-anchor="middle" x="0" y="0" style="font-family: 'Open Sans', verdana, arial, sans-serif; font-size: 34px; fill: rgb(42, 63, 95); fill-opacity: 1; white-space: pre;">LiU (2.9%)</text></g><path class="textline" stroke-width="2" d="M521.3293887529634,190.3325086875759V123.1385342552473h-10.25" fill="none" style="stroke: rgb(42, 63, 95); stroke-opacity: 1;"/></g></g></g><g class="iciclelayer"/><g class="treemaplayer"/><g class="sunburstlayer"/><g class="glimages"/><defs id="topdefs-9e3fd9"><g class="clips"/></defs><g class="layer-above"><g class="imagelayer"/><g class="shapelayer"/></g><g class="infolayer"><g class="g-gtitle"/><g class="annotation" data-index="0" style="opacity: 1;"><g class="annotation-text-g" transform="rotate(0,551,520)"><g class="cursor-pointer" transform="translate(470,488)"><rect class="bg" x="0.5" y="0.5" width="161" height="64" style="stroke-width: 1px; stroke: rgb(0, 0, 0); stroke-opacity: 0; fill: rgb(0, 0, 0); fill-opacity: 0;"/><text class="annotation-text" text-anchor="middle" x="81.203125" y="52.5" style="font-family: 'Open Sans', verdana, arial, sans-serif; font-size: 50px; fill: rgb(42, 63, 95); fill-opacity: 1; white-space: pre;">35 PIs</text></g></g></g></g></svg>