<svg class="main-svg" xmlns="http://www.w3.org/2000/svg" xmlns:xlink="http://www.w3.org/1999/xlink" width="1000" height="1000" style="" viewBox="0 0 1000 1000"><rect x="0" y="0" width="1000" height="1000" style="fill: rgb(255, 255, 255); fill-opacity: 1;"/><defs id="defs-4a14cd"><g class="clips"/><g class="gradients"/><g class="patterns"/></defs><g class="bglayer"/><g class="layer-below"><g class="imagelayer"/><g class="shapelayer"/></g><g class="cartesianlayer"/><g class="polarlayer"/><g class="smithlayer"/><g class="ternarylayer"/><g class="geolayer"/><g class="funnelarealayer"/><g class="pielayer"><g class="trace" stroke-linejoin="round" style="opacity: 1;"><g class="slice"><path class="surface" d="M705.3113945421261,552.9829414746021a126.6,126.6 0 0 0 -125.31139454212607,-108.5829414746021l0,-84.4a211,211 0 0 1 208.8523242368768,180.97156912433684Z" style="pointer-events: none; fill: rgb(153, 0, 0); fill-opacity: 1; stroke-width: 1; stroke: rgb(0, 0, 0); stroke-opacity: 1;"/><g class="slicetext"><text data-notex="1" class="slicetext" transform="translate(831.6443648624552,413.32811271895036)" text-anchor="middle" x="0" y="0" style="font-family: 'Open Sans', verdana, arial, sans-serif; font-size: 34px; fill: rgb(42, 63, 95); fill-opacity: 1; white-space: pre;">UU (22.7%)</text></g></g><g class="slice"><path class="surface" d="M624.2421651372458,689.6178351849699a126.6,126.6 0 0 0 81.06922940488029,-136.63489371036775l83.54092969475073,-12.011372350265264a211,211 0 0 1 -135.11538234146715,227.72482285061292Z" style="pointer-events: none; fill: rgb(21, 71, 52); fill-opacity: 1; stroke-width: 1; stroke: rgb(0, 0, 0); stroke-opacity: 1;"/><g class="slicetext"><text data-notex="1" class="slicetext" transform="translate(883.5723796838248,697.5046748619692)" text-anchor="middle" x="0" y="0" style="font-family: 'Open Sans', verdana, arial, sans-serif; font-size: 34px; fill: rgb(42, 63, 95); fill-opacity: 1; white-space: pre;">SLU (21.6%)</text></g></g><g class="slice"><path class="surface" d="M535.7578348627541,689.6178351849697a126.6,126.6 0 0 0 88.48433027449174,6.821210263296962e-14l29.49477675816386,79.07855678997991a211,211 0 0 1 -147.47388379081957,-1.1368683772161603e-13Z" style="pointer-events: none; fill: rgb(79, 4, 51); fill-opacity: 1; stroke-width: 1; stroke: rgb(0, 0, 0); stroke-opacity: 1;"/><g class="slicetext"><text data-notex="1" class="slicetext" transform="translate(472.4843749999999,816)" text-anchor="middle" x="0" y="0" style="font-family: 'Open Sans', verdana, arial, sans-serif; font-size: 34px; fill: rgb(42, 63, 95); fill-opacity: 1; white-space: pre;">KI (11.4%)</text></g></g><g class="slice"><path class="surface" d="M473.4973027435724,639.4451274898786a126.6,126.6 0 0 0 62.26053211918163,50.17270769509125l-29.49477675816398,79.07855678997987a211,211 0 0 1 -103.7675535319694,-83.62117949181875Z" style="pointer-events: none; fill: rgb(156, 97, 20); fill-opacity: 1; stroke-width: 1; stroke: rgb(0, 0, 0); stroke-opacity: 1;"/><g class="slicetext"><text data-notex="1" class="slicetext" transform="translate(337.1196644426401,761.2221587464162)" text-anchor="middle" x="0" y="0" style="font-family: 'Open Sans', verdana, arial, sans-serif; font-size: 34px; fill: rgb(42, 63, 95); fill-opacity: 1; white-space: pre;">LU (10.2%)</text></g></g><g class="slice"><path class="surface" d="M454.6886054578739,589.0170585253977a126.6,126.6 0 0 0 18.808697285698507,50.42806896448085l-71.00179817095174,45.63008499325236a211,211 0 0 1 -31.347828809497514,-84.04678160746809Z" style="pointer-events: none; fill: rgb(255, 255, 153); fill-opacity: 1; stroke-width: 1; stroke: rgb(0, 0, 0); stroke-opacity: 1;"/><g class="slicetext"><text data-notex="1" class="slicetext" transform="translate(188.51454552505015,660.7267919647287)" text-anchor="middle" x="0" y="0" style="font-family: 'Open Sans', verdana, arial, sans-serif; font-size: 34px; fill: rgb(42, 63, 95); fill-opacity: 1; white-space: pre;">Other Int Org (6.8%)</text></g></g><g class="slice"><path class="surface" d="M456.2932067680513,544.0892343425929a126.6,126.6 0 0 0 -1.6046013101773724,44.92782418280476l-83.54092969475074,12.011372350265127a211,211 0 0 1 2.6743355169622873,-74.87970697134128Z" style="pointer-events: none; fill: rgb(145, 216, 140); fill-opacity: 1; stroke-width: 1; stroke: rgb(0, 0, 0); stroke-opacity: 1;"/><g class="slicetext"><text data-notex="1" class="slicetext" transform="translate(222.85319378637473,576.9428017347299)" text-anchor="middle" x="0" y="0" style="font-family: 'Open Sans', verdana, arial, sans-serif; font-size: 34px; fill: rgb(42, 63, 95); fill-opacity: 1; white-space: pre;">Int Univ (5.7%)</text></g></g><g class="slice"><path class="surface" d="M468.88583992078554,510.32707828124063a126.6,126.6 0 0 0 -12.592633152734294,33.76215606135231l-82.47119548796583,-17.94051043827139a211,211 0 0 1 20.987721921223823,-56.27026010225384Z" style="pointer-events: none; fill: rgb(0, 47, 95); fill-opacity: 1; stroke-width: 1; stroke: rgb(0, 0, 0); stroke-opacity: 1;"/><g class="slicetext"><text data-notex="1" class="slicetext" transform="translate(280.4754830250504,508.25949124172104)" text-anchor="middle" x="0" y="0" style="font-family: 'Open Sans', verdana, arial, sans-serif; font-size: 34px; fill: rgb(42, 63, 95); fill-opacity: 1; white-space: pre;">SU (4.5%)</text></g></g><g class="slice"><path class="surface" d="M484.322103886751,488.0946310825268a126.6,126.6 0 0 0 -15.436263965965445,22.232447198713817l-74.0761067194763,-40.44861447917293a211,211 0 0 1 25.72710660994241,-37.05407866452303Z" style="pointer-events: none; fill: rgb(159, 161, 163); fill-opacity: 1; stroke-width: 1; stroke: rgb(0, 0, 0); stroke-opacity: 1;"/><g class="slicetext"><text data-notex="1" class="slicetext" transform="translate(256.77396644957645,457.4939314476131)" text-anchor="middle" x="0" y="0" style="font-family: 'Open Sans', verdana, arial, sans-serif; font-size: 34px; fill: rgb(42, 63, 95); fill-opacity: 1; white-space: pre;">Industry (3.4%)</text></g></g><g class="slice"><path class="surface" d="M504.1314474196635,469.65147889897594a126.6,126.6 0 0 0 -19.80934353291253,18.443152183550854l-63.785264075499335,-55.27024594498214a211,211 0 0 1 33.01557255485422,-30.738586972584756Z" style="pointer-events: none; fill: rgb(64, 142, 191); fill-opacity: 1; stroke-width: 1; stroke: rgb(0, 0, 0); stroke-opacity: 1;"/><g class="slicetext"><text data-notex="1" class="slicetext" transform="translate(319.59581474568915,416.4939314476131)" text-anchor="middle" x="0" y="0" style="font-family: 'Open Sans', verdana, arial, sans-serif; font-size: 34px; fill: rgb(42, 63, 95); fill-opacity: 1; white-space: pre;">NRM (3.4%)</text></g><path class="textline" stroke-width="2" d="M436.22081474568915,416.5702558196558V402.9939314476131h-10.25" fill="none" style="stroke: rgb(42, 63, 95); stroke-opacity: 1;"/></g><g class="slice"><path class="surface" d="M527.4084593539612,455.84058938811796a126.6,126.6 0 0 0 -23.277011934297647,13.810889510857963l-50.57903505355765,-67.56568073401604a211,211 0 0 1 38.79501989049608,-23.018149184763274Z" style="pointer-events: none; fill: rgb(255, 124, 91); fill-opacity: 1; stroke-width: 1; stroke: rgb(0, 0, 0); stroke-opacity: 1;"/><g class="slicetext"><text data-notex="1" class="slicetext" transform="translate(260.80177302415024,375.4939314476131)" text-anchor="middle" x="0" y="0" style="font-family: 'Open Sans', verdana, arial, sans-serif; font-size: 34px; fill: rgb(42, 63, 95); fill-opacity: 1; white-space: pre;">Other Swe Univ (3.4%)</text></g><path class="textline" stroke-width="2" d="M472.33302302415024,389.5369953161752V361.9939314476131h-10.25" fill="none" style="stroke: rgb(42, 63, 95); stroke-opacity: 1;"/></g><g class="slice"><path class="surface" d="M544.3326583038751,449.5281895404046a126.6,126.6 0 0 0 -16.924198949913922,6.312399847713363l-35.061027097359215,-76.77294040792135a211,211 0 0 1 28.20699824985654,-10.520666412855604Z" style="pointer-events: none; fill: rgb(25, 84, 166); fill-opacity: 1; stroke-width: 1; stroke: rgb(0, 0, 0); stroke-opacity: 1;"/><g class="slicetext"><text data-notex="1" class="slicetext" transform="translate(393.46618310459036,334.4939314476131)" text-anchor="middle" x="0" y="0" style="font-family: 'Open Sans', verdana, arial, sans-serif; font-size: 34px; fill: rgb(42, 63, 95); fill-opacity: 1; white-space: pre;">KTH (2.3%)</text></g><path class="textline" stroke-width="2" d="M506.26305810459036,373.30360802505027V320.9939314476131h-10.25" fill="none" style="stroke: rgb(42, 63, 95); stroke-opacity: 1;"/></g><g class="slice"><path class="surface" d="M561.9829414746023,445.6886054578739a126.6,126.6 0 0 0 -17.650283170727203,3.839584082530723l-23.7782277974166,-80.98120697306359a211,211 0 0 1 29.417138617878674,-6.399306804217872Z" style="pointer-events: none; fill: rgb(42, 71, 101); fill-opacity: 1; stroke-width: 1; stroke: rgb(0, 0, 0); stroke-opacity: 1;"/><g class="slicetext"><text data-notex="1" class="slicetext" transform="translate(415.9612239043222,293.4939314476131)" text-anchor="middle" x="0" y="0" style="font-family: 'Open Sans', verdana, arial, sans-serif; font-size: 34px; fill: rgb(42, 63, 95); fill-opacity: 1; white-space: pre;">UmU (2.3%)</text></g><path class="textline" stroke-width="2" d="M535.1487239043222,364.8220112800853V279.9939314476131h-10.25" fill="none" style="stroke: rgb(42, 63, 95); stroke-opacity: 1;"/></g><g class="slice"><path class="surface" d="M570.9684594069774,444.7225622903419a126.6,126.6 0 0 0 -8.985517932375135,0.9660431675320126l-12.01137235026513,-83.54092969475074a211,211 0 0 1 14.975863220625225,-1.6100719458866877Z" style="pointer-events: none; fill: rgb(0, 185, 231); fill-opacity: 1; stroke-width: 1; stroke: rgb(0, 0, 0); stroke-opacity: 1;"/><g class="slicetext"><text data-notex="1" class="slicetext" transform="translate(453.1013793497616,252.49393144761308)" text-anchor="middle" x="0" y="0" style="font-family: 'Open Sans', verdana, arial, sans-serif; font-size: 34px; fill: rgb(42, 63, 95); fill-opacity: 1; white-space: pre;">LiU (1.1%)</text></g><path class="textline" stroke-width="2" d="M557.4451293497616,361.2089663261296V238.99393144761308h-10.25" fill="none" style="stroke: rgb(42, 63, 95); stroke-opacity: 1;"/></g><g class="slice"><path class="surface" d="M580.0000000000003,444.4a126.6,126.6 0 0 0 -9.031540593022864,0.3225622903418753l-6.02102706201504,-84.18495847310543a211,211 0 0 1 15.052567655038109,-0.5376038172364588Z" style="pointer-events: none; fill: rgb(177, 89, 40); fill-opacity: 1; stroke-width: 1; stroke: rgb(0, 0, 0); stroke-opacity: 1;"/><g class="slicetext"><text data-notex="1" class="slicetext" transform="translate(367.6329800599756,211.46268144761308)" text-anchor="middle" x="0" y="0" style="font-family: 'Open Sans', verdana, arial, sans-serif; font-size: 34px; fill: rgb(42, 63, 95); fill-opacity: 1; white-space: pre;">Other Swe Org (1.1%)</text></g><path class="textline" stroke-width="2" d="M572.4689175599756,360.13444378637473V197.97830644761308h-10.2578125" fill="none" style="stroke: rgb(42, 63, 95); stroke-opacity: 1;"/></g></g></g><g class="iciclelayer"/><g class="treemaplayer"/><g class="sunburstlayer"/><g class="glimages"/><defs id="topdefs-4a14cd"><g class="clips"/></defs><g class="layer-above"><g class="imagelayer"/><g class="shapelayer"/></g><g class="infolayer"><g class="g-gtitle"/><g class="annotation" data-index="0" style="opacity: 1;"><g class="annotation-text-g" transform="rotate(0,580,571)"><g class="cursor-pointer" transform="translate(499,539)"><rect class="bg" x="0.5" y="0.5" width="161" height="64" style="stroke-width: 1px; stroke: rgb(0, 0, 0); stroke-opacity: 0; fill: rgb(0, 0, 0); fill-opacity: 0;"/><text class="annotation-text" text-anchor="middle" x="81.203125" y="52.5" style="font-family: 'Open Sans', verdana, arial, sans-serif; font-size: 50px; fill: rgb(42, 63, 95); fill-opacity: 1; white-space: pre;">88 PIs</text></g></g></g></g></svg>