<svg class="main-svg" xmlns="http://www.w3.org/2000/svg" xmlns:xlink="http://www.w3.org/1999/xlink" width="1000" height="1000" style="" viewBox="0 0 1000 1000"><rect x="0" y="0" width="1000" height="1000" style="fill: rgb(255, 255, 255); fill-opacity: 1;"/><defs id="defs-b1741f"><g class="clips"/><g class="gradients"/><g class="patterns"/></defs><g class="bglayer"/><g class="layer-below"><g class="imagelayer"/><g class="shapelayer"/></g><g class="cartesianlayer"/><g class="polarlayer"/><g class="smithlayer"/><g class="ternarylayer"/><g class="geolayer"/><g class="funnelarealayer"/><g class="pielayer"><g class="trace" stroke-linejoin="round" style="opacity: 1;"><g class="slice"><path class="surface" d="M730.2,597a166.2,166.2 0 0 0 -166.2,-166.2l0,-110.80000000000001a277,277 0 0 1 277,277Z" style="pointer-events: none; fill: rgb(79, 4, 51); fill-opacity: 1; stroke-width: 1; stroke: rgb(0, 0, 0); stroke-opacity: 1;"/><g class="slicetext"><text data-notex="1" class="slicetext" transform="translate(867.3842033886737,404.38142161132635)" text-anchor="middle" x="0" y="0" style="font-family: 'Open Sans', verdana, arial, sans-serif; font-size: 34px; fill: rgb(42, 63, 95); fill-opacity: 1; white-space: pre;">KI (25.0%)</text></g></g><g class="slice"><path class="surface" d="M596.0939839336611,760.0718130004873a166.2,166.2 0 0 0 134.10601606633895,-163.0718130004873l110.80000000000001,-6.784543267276338e-15a277,277 0 0 1 -223.5100267772316,271.7863550008122Z" style="pointer-events: none; fill: rgb(153, 0, 0); fill-opacity: 1; stroke-width: 1; stroke: rgb(0, 0, 0); stroke-opacity: 1;"/><g class="slicetext"><text data-notex="1" class="slicetext" transform="translate(891.4146807660546,794.714244715547)" text-anchor="middle" x="0" y="0" style="font-family: 'Open Sans', verdana, arial, sans-serif; font-size: 34px; fill: rgb(42, 63, 95); fill-opacity: 1; white-space: pre;">UU (21.9%)</text></g></g><g class="slice"><path class="surface" d="M496.07269822807496,748.6849421464959a166.2,166.2 0 0 0 100.02128570558608,11.386870853991342l21.395989289107362,108.71454200032488a277,277 0 0 1 -166.70214284264347,-18.97811808998557Z" style="pointer-events: none; fill: rgb(21, 71, 52); fill-opacity: 1; stroke-width: 1; stroke: rgb(0, 0, 0); stroke-opacity: 1;"/><g class="slicetext"><text data-notex="1" class="slicetext" transform="translate(421.37059514390626,905.9599318582118)" text-anchor="middle" x="0" y="0" style="font-family: 'Open Sans', verdana, arial, sans-serif; font-size: 34px; fill: rgb(42, 63, 95); fill-opacity: 1; white-space: pre;">SLU (9.8%)</text></g></g><g class="slice"><path class="surface" d="M425.2515775865352,688.4948920857046a166.2,166.2 0 0 0 70.8211206415398,60.19005006079138l-45.284867847950025,101.12329476433065a277,277 0 0 1 -118.03520106923301,-100.31675010131897Z" style="pointer-events: none; fill: rgb(0, 47, 95); fill-opacity: 1; stroke-width: 1; stroke: rgb(0, 0, 0); stroke-opacity: 1;"/><g class="slicetext"><text data-notex="1" class="slicetext" transform="translate(282.7869360692425,833.4714296213864)" text-anchor="middle" x="0" y="0" style="font-family: 'Open Sans', verdana, arial, sans-serif; font-size: 34px; fill: rgb(42, 63, 95); fill-opacity: 1; white-space: pre;">SU (9.0%)</text></g></g><g class="slice"><path class="surface" d="M399.97444300842744,623.7965791399643a166.2,166.2 0 0 0 25.277134578107752,64.69831294574033l-92.49894827564323,60.996594723803064a277,277 0 0 1 -42.128557630179586,-107.83052157623388Z" style="pointer-events: none; fill: rgb(156, 97, 20); fill-opacity: 1; stroke-width: 1; stroke: rgb(0, 0, 0); stroke-opacity: 1;"/><g class="slicetext"><text data-notex="1" class="slicetext" transform="translate(206.32032701439675,714.0164170033875)" text-anchor="middle" x="0" y="0" style="font-family: 'Open Sans', verdana, arial, sans-serif; font-size: 34px; fill: rgb(42, 63, 95); fill-opacity: 1; white-space: pre;">LU (6.7%)</text></g></g><g class="slice"><path class="surface" d="M400.9281869995126,564.9060160663394a166.2,166.2 0 0 0 -0.9537439910852071,58.89056307362497l-109.35037132771507,17.864386093309513a277,277 0 0 1 1.5895733184753453,-98.15093845604162Z" style="pointer-events: none; fill: rgb(145, 216, 140); fill-opacity: 1; stroke-width: 1; stroke: rgb(0, 0, 0); stroke-opacity: 1;"/><g class="slicetext"><text data-notex="1" class="slicetext" transform="translate(140.7550692246199,606.009144524424)" text-anchor="middle" x="0" y="0" style="font-family: 'Open Sans', verdana, arial, sans-serif; font-size: 34px; fill: rgb(42, 63, 95); fill-opacity: 1; white-space: pre;">Int Univ (5.7%)</text></g></g><g class="slice"><path class="surface" d="M420.97208335338746,512.3509890209599a166.2,166.2 0 0 0 -20.04389635387483,52.55502704537937l-108.71454200032493,-21.395989289107135a277,277 0 0 1 33.406493923124714,-87.59171174229895Z" style="pointer-events: none; fill: rgb(0, 75, 137); fill-opacity: 1; stroke-width: 1; stroke: rgb(0, 0, 0); stroke-opacity: 1;"/><g class="slicetext"><text data-notex="1" class="slicetext" transform="translate(201.79386348948373,509.1874552583134)" text-anchor="middle" x="0" y="0" style="font-family: 'Open Sans', verdana, arial, sans-serif; font-size: 34px; fill: rgb(42, 63, 95); fill-opacity: 1; white-space: pre;">GU (5.4%)</text></g></g><g class="slice"><path class="surface" d="M449.3679082163788,476.65913606213627a166.2,166.2 0 0 0 -28.395824862991326,35.69185295882368l-95.35194443107504,-56.432673986026714a277,277 0 0 1 47.32637477165221,-59.48642159803947Z" style="pointer-events: none; fill: rgb(42, 71, 101); fill-opacity: 1; stroke-width: 1; stroke: rgb(0, 0, 0); stroke-opacity: 1;"/><g class="slicetext"><text data-notex="1" class="slicetext" transform="translate(228.04555475711425,430.0978946706174)" text-anchor="middle" x="0" y="0" style="font-family: 'Open Sans', verdana, arial, sans-serif; font-size: 34px; fill: rgb(42, 63, 95); fill-opacity: 1; white-space: pre;">UmU (4.4%)</text></g></g><g class="slice"><path class="surface" d="M479.3509890209591,453.9720833533879a166.2,166.2 0 0 0 -29.98308080458032,22.687052708748325l-76.42139452241416,-80.22724262524251a277,277 0 0 1 49.971801340967204,-37.81175451458054Z" style="pointer-events: none; fill: rgb(25, 84, 166); fill-opacity: 1; stroke-width: 1; stroke: rgb(0, 0, 0); stroke-opacity: 1;"/><g class="slicetext"><text data-notex="1" class="slicetext" transform="translate(284.0628390313292,376.5720832337044)" text-anchor="middle" x="0" y="0" style="font-family: 'Open Sans', verdana, arial, sans-serif; font-size: 34px; fill: rgb(42, 63, 95); fill-opacity: 1; white-space: pre;">KTH (3.6%)</text></g></g><g class="slice"><path class="surface" d="M501.02016670913764,443.1949916333828a166.2,166.2 0 0 0 -21.669177688178536,10.777091720005119l-56.432673986027275,-95.35194443107473a277,277 0 0 1 36.115296146964226,-17.961819533341867Z" style="pointer-events: none; fill: rgb(0, 185, 231); fill-opacity: 1; stroke-width: 1; stroke: rgb(0, 0, 0); stroke-opacity: 1;"/><g class="slicetext"><text data-notex="1" class="slicetext" transform="translate(336.3048398202237,335.5720832337044)" text-anchor="middle" x="0" y="0" style="font-family: 'Open Sans', verdana, arial, sans-serif; font-size: 34px; fill: rgb(42, 63, 95); fill-opacity: 1; white-space: pre;">LiU (2.3%)</text></g><path class="textline" stroke-width="2" d="M440.6485898202237,348.98098942488184V322.0720832337044h-10.25" fill="none" style="stroke: rgb(42, 63, 95); stroke-opacity: 1;"/></g><g class="slice"><path class="surface" d="M521.4177138898599,436.3476146780442a166.2,166.2 0 0 0 -20.39754718072222,6.84737695533862l-41.986555527241585,-102.53667224441148a277,277 0 0 1 33.99591196787037,-11.412294925564368Z" style="pointer-events: none; fill: rgb(255, 124, 91); fill-opacity: 1; stroke-width: 1; stroke: rgb(0, 0, 0); stroke-opacity: 1;"/><g class="slicetext"><text data-notex="1" class="slicetext" transform="translate(264.315444366197,294.5720832337044)" text-anchor="middle" x="0" y="0" style="font-family: 'Open Sans', verdana, arial, sans-serif; font-size: 34px; fill: rgb(42, 63, 95); fill-opacity: 1; white-space: pre;">Other Swe Univ (2.1%)</text></g><path class="textline" stroke-width="2" d="M475.846694366197,334.40145715211344V281.0720832337044h-10.25" fill="none" style="stroke: rgb(42, 63, 95); stroke-opacity: 1;"/></g><g class="slice"><path class="surface" d="M537.2034208600352,432.97444300842756a166.2,166.2 0 0 0 -15.785706970175292,3.37317166961667l-28.388190740093435,-107.10159021463721a277,277 0 0 1 26.309511616958822,-5.62195278269445Z" style="pointer-events: none; fill: rgb(0, 108, 92); fill-opacity: 1; stroke-width: 1; stroke: rgb(0, 0, 0); stroke-opacity: 1;"/><g class="slicetext"><text data-notex="1" class="slicetext" transform="translate(348.06911004033566,253.5720832337044)" text-anchor="middle" x="0" y="0" style="font-family: 'Open Sans', verdana, arial, sans-serif; font-size: 34px; fill: rgb(42, 63, 95); fill-opacity: 1; white-space: pre;">Chalmers (1.5%)</text></g><path class="textline" stroke-width="2" d="M506.11598504033566,326.1154474464272V240.0720832337044h-10.25" fill="none" style="stroke: rgb(42, 63, 95); stroke-opacity: 1;"/></g><g class="slice"><path class="surface" d="M553.2419041861679,431.1485502792924a166.2,166.2 0 0 0 -16.038483326132706,1.8258927291351368l-17.864386093309903,-109.350371327715a277,277 0 0 1 26.730805543554514,-3.0431545485585616Z" style="pointer-events: none; fill: rgb(64, 142, 191); fill-opacity: 1; stroke-width: 1; stroke: rgb(0, 0, 0); stroke-opacity: 1;"/><g class="slicetext"><text data-notex="1" class="slicetext" transform="translate(416.0424701439049,212.5720832337044)" text-anchor="middle" x="0" y="0" style="font-family: 'Open Sans', verdana, arial, sans-serif; font-size: 34px; fill: rgb(42, 63, 95); fill-opacity: 1; white-space: pre;">NRM (1.5%)</text></g><path class="textline" stroke-width="2" d="M532.6674701439049,321.7777760194194V199.0720832337044h-10.25" fill="none" style="stroke: rgb(42, 63, 95); stroke-opacity: 1;"/></g><g class="slice"><path class="surface" d="M558.6181296736912,430.88716042463545a166.2,166.2 0 0 0 -5.376225487523321,0.26138985465693165l-7.172063875888099,-110.56763314713842a277,277 0 0 1 8.960375812538869,-0.4356497577615528Z" style="pointer-events: none; fill: rgb(159, 161, 163); fill-opacity: 1; stroke-width: 1; stroke: rgb(0, 0, 0); stroke-opacity: 1;"/><g class="slicetext"><text data-notex="1" class="slicetext" transform="translate(400.64201447429616,171.5720832337044)" text-anchor="middle" x="0" y="0" style="font-family: 'Open Sans', verdana, arial, sans-serif; font-size: 34px; fill: rgb(42, 63, 95); fill-opacity: 1; white-space: pre;">Industry (0.5%)</text></g><path class="textline" stroke-width="2" d="M550.5482644742962,320.32681587955346V158.0720832337044h-10.25" fill="none" style="stroke: rgb(42, 63, 95); stroke-opacity: 1;"/></g><g class="slice"><path class="surface" d="M561.3087119650231,430.82179153477193a166.2,166.2 0 0 0 -2.6905822913319275,0.0653688898635096l-3.5879135508725506,-110.74189305024305a277,277 0 0 1 4.484303818886546,-0.10894814977251599Z" style="pointer-events: none; fill: rgb(255, 153, 221); fill-opacity: 1; stroke-width: 1; stroke: rgb(0, 0, 0); stroke-opacity: 1;"/><g class="slicetext"><text data-notex="1" class="slicetext" transform="translate(387.81902249580776,130.5720832337044)" text-anchor="middle" x="0" y="0" style="font-family: 'Open Sans', verdana, arial, sans-serif; font-size: 34px; fill: rgb(42, 63, 95); fill-opacity: 1; white-space: pre;">Healthcare (0.3%)</text></g><path class="textline" stroke-width="2" d="M557.2721474958078,320.08171602315275V117.0720832337044h-10.25" fill="none" style="stroke: rgb(42, 63, 95); stroke-opacity: 1;"/></g><g class="slice"><path class="surface" d="M563.9999999999987,430.8a166.2,166.2 0 0 0 -2.6912880349756767,0.021791534771932675l-1.7941920233179323,-110.78547231015204a277,277 0 0 1 4.4854800582927945,-0.03631922461988779Z" style="pointer-events: none; fill: rgb(177, 89, 40); fill-opacity: 1; stroke-width: 1; stroke: rgb(0, 0, 0); stroke-opacity: 1;"/><g class="slicetext"><text data-notex="1" class="slicetext" transform="translate(356.9212489522738,89.5408332337044)" text-anchor="middle" x="0" y="0" style="font-family: 'Open Sans', verdana, arial, sans-serif; font-size: 34px; fill: rgb(42, 63, 95); fill-opacity: 1; white-space: pre;">Other Swe Org (0.3%)</text></g><path class="textline" stroke-width="2" d="M561.7571864522738,320.00907995497374V76.0564582337044h-10.2578125" fill="none" style="stroke: rgb(42, 63, 95); stroke-opacity: 1;"/></g></g></g><g class="iciclelayer"/><g class="treemaplayer"/><g class="sunburstlayer"/><g class="glimages"/><defs id="topdefs-b1741f"><g class="clips"/></defs><g class="layer-above"><g class="imagelayer"/><g class="shapelayer"/></g><g class="infolayer"><g class="g-gtitle"/><g class="annotation" data-index="0" style="opacity: 1;"><g class="annotation-text-g" transform="rotate(0,564,597)"><g class="cursor-pointer" transform="translate(467,565)"><rect class="bg" x="0.5" y="0.5" width="193" height="64" style="stroke-width: 1px; stroke: rgb(0, 0, 0); stroke-opacity: 0; fill: rgb(0, 0, 0); fill-opacity: 0;"/><text class="annotation-text" text-anchor="middle" x="97.09375" y="52.5" style="font-family: 'Open Sans', verdana, arial, sans-serif; font-size: 50px; fill: rgb(42, 63, 95); fill-opacity: 1; white-space: pre;">388 PIs</text></g></g></g></g></svg>