<svg class="main-svg" xmlns="http://www.w3.org/2000/svg" xmlns:xlink="http://www.w3.org/1999/xlink" width="1000" height="1000" style="" viewBox="0 0 1000 1000"><rect x="0" y="0" width="1000" height="1000" style="fill: rgb(255, 255, 255); fill-opacity: 1;"/><defs id="defs-9e692a"><g class="clips"/><g class="gradients"/><g class="patterns"/></defs><g class="bglayer"/><g class="layer-below"><g class="imagelayer"/><g class="shapelayer"/></g><g class="cartesianlayer"/><g class="polarlayer"/><g class="smithlayer"/><g class="ternarylayer"/><g class="geolayer"/><g class="funnelarealayer"/><g class="pielayer"><g class="trace" stroke-linejoin="round" style="opacity: 1;"><g class="slice"><path class="surface" d="M665.1550931098598,646.3739909931505a168.6,168.6 0 0 0 -129.1550931098597,-276.97399099315055l0,-112.4a281,281 0 0 1 215.25848851643283,461.62331832191757Z" style="pointer-events: none; fill: rgb(79, 4, 51); fill-opacity: 1; stroke-width: 1; stroke: rgb(0, 0, 0); stroke-opacity: 1;"/><g class="slicetext"><text data-notex="1" class="slicetext" transform="translate(898.1881131572986,429.08284145015045)" text-anchor="middle" x="0" y="0" style="font-family: 'Open Sans', verdana, arial, sans-serif; font-size: 34px; fill: rgb(42, 63, 95); fill-opacity: 1; white-space: pre;">KI (36.1%)</text></g></g><g class="slice"><path class="surface" d="M451.7,684.0118830780564a168.6,168.6 0 0 0 213.45509310985972,-37.637892084905815l86.10339540657314,72.24932732876702a281,281 0 0 1 -355.75848851643286,62.72982014150969Z" style="pointer-events: none; fill: rgb(153, 0, 0); fill-opacity: 1; stroke-width: 1; stroke: rgb(0, 0, 0); stroke-opacity: 1;"/><g class="slicetext"><text data-notex="1" class="slicetext" transform="translate(698.2638879244074,848.1128279594861)" text-anchor="middle" x="0" y="0" style="font-family: 'Open Sans', verdana, arial, sans-serif; font-size: 34px; fill: rgb(42, 63, 95); fill-opacity: 1; white-space: pre;">UU (22.2%)</text></g></g><g class="slice"><path class="surface" d="M377.56782413549587,595.6645961647079a168.6,168.6 0 0 0 74.1321758645041,88.34728691334848l-56.20000000000002,97.34125538537091a281,281 0 0 1 -123.55362644084019,-147.24547818891415Z" style="pointer-events: none; fill: rgb(156, 97, 20); fill-opacity: 1; stroke-width: 1; stroke: rgb(0, 0, 0); stroke-opacity: 1;"/><g class="slicetext"><text data-notex="1" class="slicetext" transform="translate(210.25713648356725,740.5934245008316)" text-anchor="middle" x="0" y="0" style="font-family: 'Open Sans', verdana, arial, sans-serif; font-size: 34px; fill: rgb(42, 63, 95); fill-opacity: 1; white-space: pre;">LU (11.1%)</text></g></g><g class="slice"><path class="surface" d="M377.5678241354958,480.3354038352925a168.6,168.6 0 0 0 1.0231815394945442e-13,115.32919232941535l-105.62145057633609,38.44306410980524a281,281 0 0 1 -1.7053025658242404e-13,-192.2153205490256Z" style="pointer-events: none; fill: rgb(42, 71, 101); fill-opacity: 1; stroke-width: 1; stroke: rgb(0, 0, 0); stroke-opacity: 1;"/><g class="slicetext"><text data-notex="1" class="slicetext" transform="translate(125,551.5000000000003)" text-anchor="middle" x="0" y="0" style="font-family: 'Open Sans', verdana, arial, sans-serif; font-size: 34px; fill: rgb(42, 63, 95); fill-opacity: 1; white-space: pre;">UmU (11.1%)</text></g></g><g class="slice"><path class="surface" d="M406.8449068901401,429.6260090068497a168.6,168.6 0 0 0 -29.277082754644326,50.70939482844279l-105.62145057633616,-38.44306410980501a281,281 0 0 1 48.795137924407214,-84.51565804740466Z" style="pointer-events: none; fill: rgb(21, 71, 52); fill-opacity: 1; stroke-width: 1; stroke: rgb(0, 0, 0); stroke-opacity: 1;"/><g class="slicetext"><text data-notex="1" class="slicetext" transform="translate(181.3499865365725,405.87500000000045)" text-anchor="middle" x="0" y="0" style="font-family: 'Open Sans', verdana, arial, sans-serif; font-size: 34px; fill: rgb(42, 63, 95); fill-opacity: 1; white-space: pre;">SLU (5.6%)</text></g></g><g class="slice"><path class="surface" d="M427.6260090068492,408.8449068901406a168.6,168.6 0 0 0 -20.78110211670911,20.78110211670916l-86.10339540657327,-72.24932732876687a281,281 0 0 1 34.63517019451518,-34.63517019451527Z" style="pointer-events: none; fill: rgb(145, 216, 140); fill-opacity: 1; stroke-width: 1; stroke: rgb(0, 0, 0); stroke-opacity: 1;"/><g class="slicetext"><text data-notex="1" class="slicetext" transform="translate(191.0217444865798,342.5529944865806)" text-anchor="middle" x="0" y="0" style="font-family: 'Open Sans', verdana, arial, sans-serif; font-size: 34px; fill: rgb(42, 63, 95); fill-opacity: 1; white-space: pre;">Int Univ (2.8%)</text></g></g><g class="slice"><path class="surface" d="M451.69999999999965,391.98811692194386a168.6,168.6 0 0 0 -24.073990993150453,16.856789968196704l-72.2493273287672,-86.10339540657299a281,281 0 0 1 40.123318321917424,-28.094649946994508Z" style="pointer-events: none; fill: rgb(0, 185, 231); fill-opacity: 1; stroke-width: 1; stroke: rgb(0, 0, 0); stroke-opacity: 1;"/><g class="slicetext"><text data-notex="1" class="slicetext" transform="translate(270.4812713853555,301.5529944865806)" text-anchor="middle" x="0" y="0" style="font-family: 'Open Sans', verdana, arial, sans-serif; font-size: 34px; fill: rgb(42, 63, 95); fill-opacity: 1; white-space: pre;">LiU (2.8%)</text></g><path class="textline" stroke-width="2" d="M374.8250213853555,307.8182755547937V288.0529944865806h-10.25" fill="none" style="stroke: rgb(42, 63, 95); stroke-opacity: 1;"/></g><g class="slice"><path class="surface" d="M478.33540383529186,379.56782413549604a168.6,168.6 0 0 0 -26.635403835292195,12.420292786447828l-56.20000000000023,-97.34125538537079a281,281 0 0 1 44.39233972548699,-20.700487977413047Z" style="pointer-events: none; fill: rgb(255, 255, 153); fill-opacity: 1; stroke-width: 1; stroke: rgb(0, 0, 0); stroke-opacity: 1;"/><g class="slicetext"><text data-notex="1" class="slicetext" transform="translate(223.45520595086282,260.5217444865806)" text-anchor="middle" x="0" y="0" style="font-family: 'Open Sans', verdana, arial, sans-serif; font-size: 34px; fill: rgb(42, 63, 95); fill-opacity: 1; white-space: pre;">Other Int Org (2.8%)</text></g><path class="textline" stroke-width="2" d="M417.2442684508628,283.32751184270165V247.0373694865806h-10.2578125" fill="none" style="stroke: rgb(42, 63, 95); stroke-opacity: 1;"/></g><g class="slice"><path class="surface" d="M506.7229172453551,371.96141284214184a168.6,168.6 0 0 0 -28.38751341006324,7.606411293354188l-38.443064109805434,-105.621450576336a281,281 0 0 1 47.3125223501054,-12.677352155590313Z" style="pointer-events: none; fill: rgb(0, 75, 137); fill-opacity: 1; stroke-width: 1; stroke: rgb(0, 0, 0); stroke-opacity: 1;"/><g class="slicetext"><text data-notex="1" class="slicetext" transform="translate(359.88122332619093,219.52174448658056)" text-anchor="middle" x="0" y="0" style="font-family: 'Open Sans', verdana, arial, sans-serif; font-size: 34px; fill: rgb(42, 63, 95); fill-opacity: 1; white-space: pre;">GU (2.8%)</text></g><path class="textline" stroke-width="2" d="M463.27184832619093,266.574842812772V206.02174448658056h-10.250000000000007" fill="none" style="stroke: rgb(42, 63, 95); stroke-opacity: 1;"/></g><g class="slice"><path class="surface" d="M535.9999999999995,369.4a168.6,168.6 0 0 0 -29.277082754644418,2.561412842141817l-19.518055169763272,-110.69239143857213a281,281 0 0 1 48.79513792440736,-4.269021403569695Z" style="pointer-events: none; fill: rgb(212, 2, 29); fill-opacity: 1; stroke-width: 1; stroke: rgb(0, 0, 0); stroke-opacity: 1;"/><g class="slicetext"><text data-notex="1" class="slicetext" transform="translate(407.91548628790724,178.52174448658056)" text-anchor="middle" x="0" y="0" style="font-family: 'Open Sans', verdana, arial, sans-serif; font-size: 34px; fill: rgb(42, 63, 95); fill-opacity: 1; white-space: pre;">ÖU (2.8%)</text></g><path class="textline" stroke-width="2" d="M511.50923628790724,258.0692898362196V165.02174448658056h-10.25" fill="none" style="stroke: rgb(42, 63, 95); stroke-opacity: 1;"/></g></g></g><g class="iciclelayer"/><g class="treemaplayer"/><g class="sunburstlayer"/><g class="glimages"/><defs id="topdefs-9e692a"><g class="clips"/></defs><g class="layer-above"><g class="imagelayer"/><g class="shapelayer"/></g><g class="infolayer"><g class="g-gtitle"/><g class="annotation" data-index="0" style="opacity: 1;"><g class="annotation-text-g" transform="rotate(0,536,538)"><g class="cursor-pointer" transform="translate(455,506)"><rect class="bg" x="0.5" y="0.5" width="161" height="64" style="stroke-width: 1px; stroke: rgb(0, 0, 0); stroke-opacity: 0; fill: rgb(0, 0, 0); fill-opacity: 0;"/><text class="annotation-text" text-anchor="middle" x="81.203125" y="52.5" style="font-family: 'Open Sans', verdana, arial, sans-serif; font-size: 50px; fill: rgb(42, 63, 95); fill-opacity: 1; white-space: pre;">36 PIs</text></g></g></g></g></svg>