<svg class="main-svg" xmlns="http://www.w3.org/2000/svg" xmlns:xlink="http://www.w3.org/1999/xlink" width="1000" height="1000" style="" viewBox="0 0 1000 1000"><rect x="0" y="0" width="1000" height="1000" style="fill: rgb(255, 255, 255); fill-opacity: 1;"/><defs id="defs-ccd6a7"><g class="clips"/><g class="gradients"/><g class="patterns"/></defs><g class="bglayer"/><g class="layer-below"><g class="imagelayer"/><g class="shapelayer"/></g><g class="cartesianlayer"/><g class="polarlayer"/><g class="smithlayer"/><g class="ternarylayer"/><g class="geolayer"/><g class="funnelarealayer"/><g class="pielayer"><g class="trace" stroke-linejoin="round" style="opacity: 1;"><g class="slice"><path class="surface" d="M682.0278020331366,530.225040699396a120.6,120.6 0 0 0 -105.02780203313664,-61.32504069939598l0,-80.4a201,201 0 0 1 175.0463367218944,102.20840116565996Z" style="pointer-events: none; fill: rgb(21, 71, 52); fill-opacity: 1; stroke-width: 1; stroke: rgb(0, 0, 0); stroke-opacity: 1;"/><g class="slicetext"><text data-notex="1" class="slicetext" transform="translate(800.459975970832,414.1348873433003)" text-anchor="middle" x="0" y="0" style="font-family: 'Open Sans', verdana, arial, sans-serif; font-size: 34px; fill: rgb(42, 63, 95); fill-opacity: 1; white-space: pre;">SLU (16.8%)</text></g></g><g class="slice"><path class="surface" d="M683.7226387232638,645.6661676095468a120.6,120.6 0 0 0 -1.694836690127181,-115.44112691015089l70.01853468875775,-39.51663953373602a201,201 0 0 1 2.824727816878635,192.4018781835848Z" style="pointer-events: none; fill: rgb(153, 0, 0); fill-opacity: 1; stroke-width: 1; stroke: rgb(0, 0, 0); stroke-opacity: 1;"/><g class="slicetext"><text data-notex="1" class="slicetext" transform="translate(891.4470913960033,600.0449400597541)" text-anchor="middle" x="0" y="0" style="font-family: 'Open Sans', verdana, arial, sans-serif; font-size: 34px; fill: rgb(42, 63, 95); fill-opacity: 1; white-space: pre;">UU (15.9%)</text></g></g><g class="slice"><path class="surface" d="M594.6409656557465,708.8027926359345a120.6,120.6 0 0 0 89.08167306751724,-63.13662502638756l71.14842581550921,37.44411173969791a201,201 0 0 1 -148.46945511252875,105.22770837731261Z" style="pointer-events: none; fill: rgb(79, 4, 51); fill-opacity: 1; stroke-width: 1; stroke: rgb(0, 0, 0); stroke-opacity: 1;"/><g class="slicetext"><text data-notex="1" class="slicetext" transform="translate(800.7425925924537,780.634198225086)" text-anchor="middle" x="0" y="0" style="font-family: 'Open Sans', verdana, arial, sans-serif; font-size: 34px; fill: rgb(42, 63, 95); fill-opacity: 1; white-space: pre;">KI (15.0%)</text></g></g><g class="slice"><path class="surface" d="M501.60955358029753,683.6309757127693a120.6,120.6 0 0 0 93.03141207544905,25.171816923165096l11.760643770497715,79.53519509062295a201,201 0 0 1 -155.05235345908176,-41.95302820527516Z" style="pointer-events: none; fill: rgb(156, 97, 20); fill-opacity: 1; stroke-width: 1; stroke: rgb(0, 0, 0); stroke-opacity: 1;"/><g class="slicetext"><text data-notex="1" class="slicetext" transform="translate(414.0181191351718,816.1248003945269)" text-anchor="middle" x="0" y="0" style="font-family: 'Open Sans', verdana, arial, sans-serif; font-size: 34px; fill: rgb(42, 63, 95); fill-opacity: 1; white-space: pre;">LU (13.1%)</text></g></g><g class="slice"><path class="surface" d="M462.08572335917324,626.0932920644692a120.6,120.6 0 0 0 39.52383022112426,57.537683648300145l-50.26029761313499,62.753983808512885a201,201 0 0 1 -65.87305036854043,-95.89613941383358Z" style="pointer-events: none; fill: rgb(145, 216, 140); fill-opacity: 1; stroke-width: 1; stroke: rgb(0, 0, 0); stroke-opacity: 1;"/><g class="slicetext"><text data-notex="1" class="slicetext" transform="translate(265.0415356754021,723.3791667201926)" text-anchor="middle" x="0" y="0" style="font-family: 'Open Sans', verdana, arial, sans-serif; font-size: 34px; fill: rgb(42, 63, 95); fill-opacity: 1; white-space: pre;">Int Univ (9.3%)</text></g></g><g class="slice"><path class="surface" d="M457.03621422360334,577.1286580277314a120.6,120.6 0 0 0 5.049509135569906,48.964634036737756l-76.60951776055116,24.395528042979453a201,201 0 0 1 -8.415848559283177,-81.60772339456292Z" style="pointer-events: none; fill: rgb(0, 75, 137); fill-opacity: 1; stroke-width: 1; stroke: rgb(0, 0, 0); stroke-opacity: 1;"/><g class="slicetext"><text data-notex="1" class="slicetext" transform="translate(273.6697320393389,623.834624507917)" text-anchor="middle" x="0" y="0" style="font-family: 'Open Sans', verdana, arial, sans-serif; font-size: 34px; fill: rgb(42, 63, 95); fill-opacity: 1; white-space: pre;">GU (6.5%)</text></g></g><g class="slice"><path class="surface" d="M465.7502587539951,542.939769408894a120.6,120.6 0 0 0 -8.71404453039176,34.188888618837375l-79.97585718426444,-8.247561314845717a201,201 0 0 1 14.523407550652934,-56.98148103139563Z" style="pointer-events: none; fill: rgb(255, 255, 153); fill-opacity: 1; stroke-width: 1; stroke: rgb(0, 0, 0); stroke-opacity: 1;"/><g class="slicetext"><text data-notex="1" class="slicetext" transform="translate(188.4379656999057,552.0892828981463)" text-anchor="middle" x="0" y="0" style="font-family: 'Open Sans', verdana, arial, sans-serif; font-size: 34px; fill: rgb(42, 63, 95); fill-opacity: 1; white-space: pre;">Other Int Org (4.7%)</text></g></g><g class="slice"><path class="surface" d="M479.6410994747399,518.3269398682864a120.6,120.6 0 0 0 -13.890840720744778,24.612829540607542l-74.16649416400325,-31.040153727403972a201,201 0 0 1 23.1514012012413,-41.02138256767924Z" style="pointer-events: none; fill: rgb(25, 84, 166); fill-opacity: 1; stroke-width: 1; stroke: rgb(0, 0, 0); stroke-opacity: 1;"/><g class="slicetext"><text data-notex="1" class="slicetext" transform="translate(289.1567882781056,499.2561601318979)" text-anchor="middle" x="0" y="0" style="font-family: 'Open Sans', verdana, arial, sans-serif; font-size: 34px; fill: rgb(42, 63, 95); fill-opacity: 1; white-space: pre;">KTH (3.7%)</text></g></g><g class="slice"><path class="surface" d="M498.87869409520135,497.6227908361988a120.6,120.6 0 0 0 -19.237594620461465,20.704149032087702l-64.90593368350675,-47.448706754475666a201,201 0 0 1 32.06265770076911,-34.5069150534795Z" style="pointer-events: none; fill: rgb(0, 47, 95); fill-opacity: 1; stroke-width: 1; stroke: rgb(0, 0, 0); stroke-opacity: 1;"/><g class="slicetext"><text data-notex="1" class="slicetext" transform="translate(327.9240570670098,456.68400264813283)" text-anchor="middle" x="0" y="0" style="font-family: 'Open Sans', verdana, arial, sans-serif; font-size: 34px; fill: rgb(42, 63, 95); fill-opacity: 1; white-space: pre;">SU (3.7%)</text></g></g><g class="slice"><path class="surface" d="M516.1896394175008,485.35366043001596a120.6,120.6 0 0 0 -17.310945322299403,12.269130406182835l-52.080870603199095,-61.25147277586747a201,201 0 0 1 28.851575537165672,-20.448550676971394Z" style="pointer-events: none; fill: rgb(42, 71, 101); fill-opacity: 1; stroke-width: 1; stroke: rgb(0, 0, 0); stroke-opacity: 1;"/><g class="slicetext"><text data-notex="1" class="slicetext" transform="translate(341.58553240754634,415.68400264813283)" text-anchor="middle" x="0" y="0" style="font-family: 'Open Sans', verdana, arial, sans-serif; font-size: 34px; fill: rgb(42, 63, 95); fill-opacity: 1; white-space: pre;">UmU (2.8%)</text></g><path class="textline" stroke-width="2" d="M460.77303240754634,425.51130525471365V402.18400264813283h-10.25" fill="none" style="stroke: rgb(42, 63, 95); stroke-opacity: 1;"/></g><g class="slice"><path class="surface" d="M528.811661161736,478.9457418277855a120.6,120.6 0 0 0 -12.622021744235209,6.407918602230455l-40.540240388332826,-69.43089304665602a201,201 0 0 1 21.036702907058682,-10.679864337050759Z" style="pointer-events: none; fill: rgb(255, 153, 221); fill-opacity: 1; stroke-width: 1; stroke: rgb(0, 0, 0); stroke-opacity: 1;"/><g class="slicetext"><text data-notex="1" class="slicetext" transform="translate(316.55779638098113,374.68400264813283)" text-anchor="middle" x="0" y="0" style="font-family: 'Open Sans', verdana, arial, sans-serif; font-size: 34px; fill: rgb(42, 63, 95); fill-opacity: 1; white-space: pre;">Healthcare (1.9%)</text></g><path class="textline" stroke-width="2" d="M486.01092138098113,410.2739205024503V361.18400264813283h-10.25" fill="none" style="stroke: rgb(42, 63, 95); stroke-opacity: 1;"/></g><g class="slice"><path class="surface" d="M542.0975710194828,474.0609232050951a120.6,120.6 0 0 0 -13.285909857746836,4.88481862269042l-32.125559225509356,-73.70283878147633a201,201 0 0 1 22.143183096244726,-8.1413643711507Z" style="pointer-events: none; fill: rgb(159, 161, 163); fill-opacity: 1; stroke-width: 1; stroke: rgb(0, 0, 0); stroke-opacity: 1;"/><g class="slicetext"><text data-notex="1" class="slicetext" transform="translate(357.73189113604417,333.68400264813283)" text-anchor="middle" x="0" y="0" style="font-family: 'Open Sans', verdana, arial, sans-serif; font-size: 34px; fill: rgb(42, 63, 95); fill-opacity: 1; white-space: pre;">Industry (1.9%)</text></g><path class="textline" stroke-width="2" d="M507.63814113604417,400.84705797434094V320.18400264813283h-10.25" fill="none" style="stroke: rgb(42, 63, 95); stroke-opacity: 1;"/></g><g class="slice"><path class="surface" d="M555.8643297359259,470.766502441441a120.6,120.6 0 0 0 -13.76675871644311,3.294420763654085l-23.268285987011463,-76.95938452993661a201,201 0 0 1 22.94459786073852,-5.490701272756809Z" style="pointer-events: none; fill: rgb(0, 185, 231); fill-opacity: 1; stroke-width: 1; stroke: rgb(0, 0, 0); stroke-opacity: 1;"/><g class="slicetext"><text data-notex="1" class="slicetext" transform="translate(425.8772054341232,292.68400264813283)" text-anchor="middle" x="0" y="0" style="font-family: 'Open Sans', verdana, arial, sans-serif; font-size: 34px; fill: rgb(42, 63, 95); fill-opacity: 1; white-space: pre;">LiU (1.9%)</text></g><path class="textline" stroke-width="2" d="M530.2209554341232,394.01925672971333V279.18400264813283h-10.25" fill="none" style="stroke: rgb(42, 63, 95); stroke-opacity: 1;"/></g><g class="slice"><path class="surface" d="M569.9222734277739,469.1078665918375a120.6,120.6 0 0 0 -14.05794369184795,1.6586358496035416l-14.090446842716055,-79.15566503903933a201,201 0 0 1 23.429906153079916,-2.7643930826725693Z" style="pointer-events: none; fill: rgb(255, 124, 91); fill-opacity: 1; stroke-width: 1; stroke: rgb(0, 0, 0); stroke-opacity: 1;"/><g class="slicetext"><text data-notex="1" class="slicetext" transform="translate(341.9169920754583,251.68400264813283)" text-anchor="middle" x="0" y="0" style="font-family: 'Open Sans', verdana, arial, sans-serif; font-size: 34px; fill: rgb(42, 63, 95); fill-opacity: 1; white-space: pre;">Other Swe Univ (1.9%)</text></g><path class="textline" stroke-width="2" d="M553.4482420754583,389.8845830135764V238.18400264813283h-10.25" fill="none" style="stroke: rgb(42, 63, 95); stroke-opacity: 1;"/></g><g class="slice"><path class="surface" d="M576.9999999999995,468.9a120.6,120.6 0 0 0 -7.077726572225672,0.2078665918374611l-4.718484381484088,-80.26142227210836a201,201 0 0 1 11.796210953709455,-0.34644431972910184Z" style="pointer-events: none; fill: rgb(64, 142, 191); fill-opacity: 1; stroke-width: 1; stroke: rgb(0, 0, 0); stroke-opacity: 1;"/><g class="slicetext"><text data-notex="1" class="slicetext" transform="translate(454.4743513803328,210.68400264813283)" text-anchor="middle" x="0" y="0" style="font-family: 'Open Sans', verdana, arial, sans-serif; font-size: 34px; fill: rgb(42, 63, 95); fill-opacity: 1; white-space: pre;">NRM (0.9%)</text></g><path class="textline" stroke-width="2" d="M571.0993513803328,388.58662974837335V197.18400264813283h-10.25" fill="none" style="stroke: rgb(42, 63, 95); stroke-opacity: 1;"/></g></g></g><g class="iciclelayer"/><g class="treemaplayer"/><g class="sunburstlayer"/><g class="glimages"/><defs id="topdefs-ccd6a7"><g class="clips"/></defs><g class="layer-above"><g class="imagelayer"/><g class="shapelayer"/></g><g class="infolayer"><g class="g-gtitle"/><g class="annotation" data-index="0" style="opacity: 1;"><g class="annotation-text-g" transform="rotate(0,577,589.5)"><g class="cursor-pointer" transform="translate(480,557)"><rect class="bg" x="0.5" y="0.5" width="193" height="64" style="stroke-width: 1px; stroke: rgb(0, 0, 0); stroke-opacity: 0; fill: rgb(0, 0, 0); fill-opacity: 0;"/><text class="annotation-text" text-anchor="middle" x="97.09375" y="52.5" style="font-family: 'Open Sans', verdana, arial, sans-serif; font-size: 50px; fill: rgb(42, 63, 95); fill-opacity: 1; white-space: pre;">107 PIs</text></g></g></g></g></svg>