<svg class="main-svg" xmlns="http://www.w3.org/2000/svg" xmlns:xlink="http://www.w3.org/1999/xlink" width="1000" height="1000" style="" viewBox="0 0 1000 1000"><rect x="0" y="0" width="1000" height="1000" style="fill: rgb(255, 255, 255); fill-opacity: 1;"/><defs id="defs-0c4ae6"><g class="clips"/><g class="gradients"/><g class="patterns"/></defs><g class="bglayer"/><g class="layer-below"><g class="imagelayer"/><g class="shapelayer"/></g><g class="cartesianlayer"/><g class="polarlayer"/><g class="smithlayer"/><g class="ternarylayer"/><g class="geolayer"/><g class="funnelarealayer"/><g class="pielayer"><g class="trace" stroke-linejoin="round" style="opacity: 1;"><g class="slice"><path class="surface" d="M423.2113799992935,573.3191123022416a159.6,159.6 0 1 0 151.7886200007065,-208.91911230224164l0,-106.4a266,266 0 1 1 -252.98103333451084,348.19852050373606Z" style="pointer-events: none; fill: rgb(79, 4, 51); fill-opacity: 1; stroke-width: 1; stroke: rgb(0, 0, 0); stroke-opacity: 1;"/><g class="slicetext"><text data-notex="1" class="slicetext" transform="translate(897.7141455037361,700.9334529174546)" text-anchor="middle" x="0" y="0" style="font-family: 'Open Sans', verdana, arial, sans-serif; font-size: 34px; fill: rgb(42, 63, 95); fill-opacity: 1; white-space: pre;">KI (70.0%)</text></g></g><g class="slice"><path class="surface" d="M423.2113799992935,474.6808876977584a159.6,159.6 0 0 0 1.7053025658242404e-14,98.6382246044832l-101.19241333380434,32.87940820149442a266,266 0 0 1 -2.842170943040401e-14,-164.397041007472Z" style="pointer-events: none; fill: rgb(145, 216, 140); fill-opacity: 1; stroke-width: 1; stroke: rgb(0, 0, 0); stroke-opacity: 1;"/><g class="slicetext"><text data-notex="1" class="slicetext" transform="translate(151.90625,537.5)" text-anchor="middle" x="0" y="0" style="font-family: 'Open Sans', verdana, arial, sans-serif; font-size: 34px; fill: rgb(42, 63, 95); fill-opacity: 1; white-space: pre;">Int Univ (10.0%)</text></g></g><g class="slice"><path class="surface" d="M481.18947373412124,394.8808876977584a159.6,159.6 0 0 0 -57.978093734827766,79.80000000000003l-101.19241333380435,-32.879408201494385a266,266 0 0 1 96.63015622471295,-133.00000000000006Z" style="pointer-events: none; fill: rgb(0, 75, 137); fill-opacity: 1; stroke-width: 1; stroke: rgb(0, 0, 0); stroke-opacity: 1;"/><g class="slicetext"><text data-notex="1" class="slicetext" transform="translate(245.59835449626394,374.0665470825454)" text-anchor="middle" x="0" y="0" style="font-family: 'Open Sans', verdana, arial, sans-serif; font-size: 34px; fill: rgb(42, 63, 95); fill-opacity: 1; white-space: pre;">GU (10.0%)</text></g></g><g class="slice"><path class="surface" d="M525.6808876977584,372.2113799992935a159.6,159.6 0 0 0 -44.491413963637115,22.6695076984649l-62.54035084391917,-86.0794082014944a266,266 0 0 1 74.15235660606186,-37.782512830774834Z" style="pointer-events: none; fill: rgb(25, 84, 166); fill-opacity: 1; stroke-width: 1; stroke: rgb(0, 0, 0); stroke-opacity: 1;"/><g class="slicetext"><text data-notex="1" class="slicetext" transform="translate(341.4416520692805,284.21746572989633)" text-anchor="middle" x="0" y="0" style="font-family: 'Open Sans', verdana, arial, sans-serif; font-size: 34px; fill: rgb(42, 63, 95); fill-opacity: 1; white-space: pre;">KTH (5.0%)</text></g></g><g class="slice"><path class="surface" d="M575,364.4a159.6,159.6 0 0 0 -49.31911230224159,7.811379999293496l-32.87940820149443,-101.19241333380434a266,266 0 0 1 82.19852050373599,-13.01896666548916Z" style="pointer-events: none; fill: rgb(153, 0, 0); fill-opacity: 1; stroke-width: 1; stroke: rgb(0, 0, 0); stroke-opacity: 1;"/><g class="slicetext"><text data-notex="1" class="slicetext" transform="translate(430.73218229929853,243.2174657298963)" text-anchor="middle" x="0" y="0" style="font-family: 'Open Sans', verdana, arial, sans-serif; font-size: 34px; fill: rgb(42, 63, 95); fill-opacity: 1; white-space: pre;">UU (5.0%)</text></g><path class="textline" stroke-width="2" d="M533.3884322992985,261.2749014016934V229.7174657298963h-10.250000000000007" fill="none" style="stroke: rgb(42, 63, 95); stroke-opacity: 1;"/></g></g></g><g class="iciclelayer"/><g class="treemaplayer"/><g class="sunburstlayer"/><g class="glimages"/><defs id="topdefs-0c4ae6"><g class="clips"/></defs><g class="layer-above"><g class="imagelayer"/><g class="shapelayer"/></g><g class="infolayer"><g class="g-gtitle"/><g class="annotation" data-index="0" style="opacity: 1;"><g class="annotation-text-g" transform="rotate(0,575,524)"><g class="cursor-pointer" transform="translate(494,492)"><rect class="bg" x="0.5" y="0.5" width="161" height="64" style="stroke-width: 1px; stroke: rgb(0, 0, 0); stroke-opacity: 0; fill: rgb(0, 0, 0); fill-opacity: 0;"/><text class="annotation-text" text-anchor="middle" x="81.203125" y="52.5" style="font-family: 'Open Sans', verdana, arial, sans-serif; font-size: 50px; fill: rgb(42, 63, 95); fill-opacity: 1; white-space: pre;">20 PIs</text></g></g></g></g></svg>